<?xml version="1.0" encoding="UTF-8"?>
<svg width="3px" height="13px" viewBox="0 0 3 13" version="1.1" xmlns="http://www.w3.org/2000/svg" xmlns:xlink="http://www.w3.org/1999/xlink">
    <title>6F2D5537-EF8C-435A-B279-BA43E6231E29</title>
    <g id="NETPAY-LOOP" stroke="none" stroke-width="1" fill="none" fill-rule="evenodd">
        <g id="01.00-Clientes" transform="translate(-1501.000000, -376.000000)" fill="#485769" fill-rule="nonzero">
            <g id="Stacked-Group-Copy" transform="translate(123.000000, 168.000000)">
                <g id="Table" transform="translate(0.000000, 95.000000)">
                    <g id="column" transform="translate(1332.000000, 0.000000)">
                        <g id="Tabla/Cell/Icon" transform="translate(0.000000, 93.000000)">
                            <g id="Tabla/Cell/Icon/Dots" transform="translate(33.000000, 12.000000)">
                                <g transform="translate(0.500000, 0.500000)" id="ellipsis-solid">
                                    <path d="M13.9999988,10.7500292 C14.4166607,10.7500292 14.7708269,10.6041889 15.0624927,10.3125231 C15.3541585,10.0208573 15.4999988,9.66669114 15.4999988,9.25002921 C15.4999988,8.83336012 15.3541585,8.47919398 15.0624927,8.18752816 C14.7708269,7.89586235 14.4166607,7.75002921 13.9999988,7.75002921 C13.5833297,7.75002921 13.2291636,7.89586235 12.9374978,8.18752816 C12.645832,8.47919398 12.4999988,8.83336012 12.4999988,9.25002921 C12.4999988,9.66669114 12.645832,10.0208573 12.9374978,10.3125231 C13.2291636,10.6041889 13.5833297,10.7500292 13.9999988,10.7500292 Z M13.9999988,15.5000179 C14.4166607,15.5000179 14.7708269,15.3541776 15.0624927,15.0625118 C15.3541585,14.770846 15.4999988,14.4166798 15.4999988,14.0000179 C15.4999988,13.5833488 15.3541585,13.2291827 15.0624927,12.9375168 C14.7708269,12.645851 14.4166607,12.5000179 13.9999988,12.5000179 C13.5833297,12.5000179 13.2291636,12.645851 12.9374978,12.9375168 C12.645832,13.2291827 12.4999988,13.5833488 12.4999988,14.0000179 C12.4999988,14.4166798 12.645832,14.770846 12.9374978,15.0625118 C13.2291636,15.3541776 13.5833297,15.5000179 13.9999988,15.5000179 Z M13.9999988,20.2500066 C14.4166607,20.2500066 14.7708269,20.1041663 15.0624927,19.8125004 C15.3541585,19.5208346 15.4999988,19.1666685 15.4999988,18.7500066 C15.4999988,18.3333375 15.3541585,17.9791713 15.0624927,17.6875055 C14.7708269,17.3958397 14.4166607,17.2500066 13.9999988,17.2500066 C13.5833297,17.2500066 13.2291636,17.3958397 12.9374978,17.6875055 C12.645832,17.9791713 12.4999988,18.3333375 12.4999988,18.7500066 C12.4999988,19.1666685 12.645832,19.5208346 12.9374978,19.8125004 C13.2291636,20.1041663 13.5833297,20.2500066 13.9999988,20.2500066 Z"></path>
                                </g>
                            </g>
                        </g>
                    </g>
                </g>
            </g>
        </g>
    </g>
</svg>
