<?xml version="1.0" standalone="no"?>
<!DOCTYPE svg PUBLIC "-//W3C//DTD SVG 1.1//EN" "http://www.w3.org/Graphics/SVG/1.1/DTD/svg11.dtd" >
<svg xmlns="http://www.w3.org/2000/svg">
<metadata>Generated by IcoMoon</metadata>
<defs>
<font id="NetPay" horiz-adv-x="1024">
<font-face units-per-em="1024" ascent="960" descent="-64" />
<missing-glyph horiz-adv-x="1024" />
<glyph unicode="&#x20;" horiz-adv-x="512" d="" />
<glyph unicode="&#xe900;" glyph-name="alert-light" d="M780.12 170.667c15.234 0 28.945 4.103 41.132 12.308s21.074 19.231 26.66 33.077c5.586 13.846 6.855 27.949 3.809 42.308s-10.156 26.667-21.328 36.923c-25.39 24.615-43.163 49.744-53.319 75.385-14.218 36.923-21.328 88.205-21.328 153.846 0 40-9.648 77.179-28.945 111.538s-45.702 62.564-79.217 84.615c-33.515 22.051-70.585 34.615-111.209 37.692v0 27.692c0 7.179-2.285 13.077-6.855 17.692s-10.41 6.923-17.519 6.923c-7.109 0-12.949-2.308-17.519-6.923s-6.855-10.513-6.855-17.692v0-27.692c-40.624-3.077-77.694-15.641-111.209-37.692s-59.921-50.256-79.217-84.615c-19.297-34.359-28.945-71.538-28.945-111.538 0-65.641-7.109-116.923-21.328-153.846-10.156-25.641-27.929-50.769-53.319-75.385-11.172-10.256-18.281-22.564-21.328-36.923s-1.777-28.462 3.809-42.308c5.586-13.846 14.472-24.872 26.66-33.077s25.898-12.308 41.132-12.308v0h536.24zM785.303 256h-546.607c-11.388 0-19.152 4.644-23.293 13.933s-2.070 17.356 6.211 24.2c31.057 28.356 52.797 57.689 65.22 88 17.599 41.067 26.399 95.822 26.399 164.267 0 32.267 8.8 62.089 26.399 89.467s41.668 49.133 72.208 65.267c30.54 16.133 63.926 24.2 100.159 24.2s69.62-8.067 100.159-24.2c30.54-16.133 54.609-37.889 72.208-65.267s26.399-57.2 26.399-89.467c0-68.444 8.8-122.711 26.399-162.8 12.423-31.289 34.163-61.111 65.22-89.467 8.282-6.844 10.352-14.911 6.211-24.2s-11.905-13.933-23.293-13.933v0zM512 42.667c34.667 0 64.667 8.444 90 25.333s38 36.889 38 60v0h-64c0-11.556-6.333-21.556-19-30s-27.667-12.667-45-12.667c-17.333 0-32.333 4.222-45 12.667s-19 18.444-19 30v0h-64c0-23.111 12.667-43.111 38-60s55.333-25.333 90-25.333z" />
<glyph unicode="&#xe901;" glyph-name="alert-triangle-light" d="M511.384 767.529c32.597 0 61.786-16.854 78.083-45.081v0l293.079-507.627c16.298-28.228 16.298-61.933 0-90.163-16.3-28.225-45.489-45.079-78.084-45.079v0h-586.155c-32.597 0-61.785 16.852-78.083 45.081s-16.298 61.933 0 90.163v0l293.077 507.626c16.297 28.227 45.488 45.081 78.083 45.081zM511.385 722.605c-16.355 0-31.002-8.455-39.179-22.62v0l-293.080-507.627c-8.177-14.164-8.177-31.075 0-45.239s22.823-22.62 39.18-22.62v0h586.155c16.355 0 31.002 8.455 39.18 22.62s8.177 31.075 0.001 45.239v0l-293.079 507.627c-8.177 14.164-22.825 22.62-39.179 22.62zM511.384 273.81c16.514 0 29.949-13.435 29.949-29.949s-13.436-29.949-29.949-29.949c-16.514 0-29.949 13.435-29.949 29.949s13.435 29.949 29.949 29.949zM533.843 543.346v-224.612h-44.922v224.612h44.922z" />
<glyph unicode="&#xe902;" glyph-name="badge-porcent" d="M435.783 776.841c40.047 45.101 112.419 45.101 152.433 0l17.048-19.007c8.156-9.342 20.993-13.208 33.194-10.631l25.539 6.121c59.87 13.852 118.436-27.383 123.283-86.336l2.106-25.45c0.969-11.919 8.892-22.55 20.491-27.060l24.269-9.664c56.861-22.872 79.225-89.235 47.067-139.812l-13.672-21.584c-6.585-10.309-6.585-23.195 0-33.503l13.672-21.584c32.158-50.577 9.794-116.94-47.067-139.812l-24.269-9.664c-11.6-4.51-19.522-15.141-20.491-27.060l-2.106-25.45c-4.847-58.953-63.413-100.188-123.283-86.336l-25.539 6.121c-12.201 2.577-25.038-1.289-33.194-10.631l-17.048-19.007c-40.014-45.101-112.386-45.101-152.433 0l-17.048 19.007c-8.156 9.342-20.959 13.208-33.194 10.631l-25.539-6.121c-59.87-13.852-118.403 27.383-123.283 86.336l-2.106 25.45c-0.969 11.919-8.892 22.55-20.491 27.060l-24.235 9.664c-56.895 22.872-79.258 89.235-47.1 139.812l13.672 21.584c6.585 10.309 6.585 23.195 0 33.503l-13.672 21.584c-32.158 50.577-9.794 116.94 47.1 139.812l24.235 9.664c11.6 4.51 19.522 15.141 20.491 27.060l2.106 25.45c4.881 58.953 63.413 100.188 123.283 86.336l25.539-6.121c12.235-2.577 25.038 1.289 33.194 10.631l17.048 19.007zM537.405 734.962c-13.338 15.141-37.473 15.141-50.811 0l-17.082-19.007c-24.436-27.705-62.912-39.624-99.549-31.248l-25.506 5.799c-19.957 4.51-39.479-9.020-41.117-28.671l-2.073-25.128c-2.975-36.403-26.743-67.973-61.541-81.826l-24.235-9.664c-18.954-7.409-26.408-29.638-15.678-46.389l13.672-21.584c19.656-31.248 19.656-69.906 0-101.154l-13.672-21.584c-10.73-16.752-3.276-38.98 15.678-46.389l24.235-9.664c34.799-13.852 58.566-45.423 61.541-81.826l2.073-25.128c1.638-19.651 21.16-33.181 41.117-28.671l25.506 5.799c36.637 8.376 75.113-3.544 99.549-31.248l17.082-19.007c13.338-15.141 37.473-15.141 50.811 0l17.082 19.007c24.469 27.705 62.912 39.624 99.549 31.248l25.506-5.799c19.957-4.51 39.479 9.020 41.117 28.671l2.073 25.128c2.975 36.403 26.743 67.973 61.541 81.826l24.235 9.664c18.954 7.409 26.408 29.638 15.678 46.389l-13.672 21.584c-19.656 31.248-19.656 69.906 0 101.154l13.672 21.584c10.73 16.752 3.276 38.98-15.678 46.389l-24.235 9.664c-34.799 13.852-58.566 45.423-61.541 81.826l-2.073 25.128c-1.638 19.651-21.16 33.181-41.117 28.671l-25.506-5.799c-36.637-8.376-75.080 3.544-99.549 31.248l-17.082 19.007zM468.777 546.184c13.070-12.564 13.070-33.181 0-45.745l-33.428-32.215c-13.070-12.564-34.197-12.564-47.267 0s-13.070 33.181 0 45.745l33.428 32.215c13.070 12.564 34.197 12.564 47.267 0zM635.918 546.184c13.070-12.564 13.070-33.181 0-45.745l-200.569-193.289c-13.070-12.564-34.197-12.564-47.267 0s-13.070 33.181 0 45.745l200.569 193.289c13.070 12.564 34.197 12.564 47.267 0zM635.918 385.11c13.070-12.564 13.070-33.181 0-45.745l-33.428-32.215c-13.070-12.564-34.197-12.564-47.267 0s-13.070 33.181 0 45.745l33.428 32.215c13.070 12.564 34.197 12.564 47.267 0v0z" />
<glyph unicode="&#xe903;" glyph-name="camera-light" d="M633.673 768c20.279 0 38.935-8.245 52.725-22.261 13.79-13.192 21.901-32.979 21.901-53.591v0-1.649h134.651c26.768 0 50.292-10.718 67.326-28.857 17.845-17.314 28.39-41.224 28.39-68.432v0-410.589c0-26.383-11.356-51.118-28.39-68.432-17.034-18.138-40.558-28.857-67.326-28.857v0h-661.901c-25.957 0-50.292 11.543-67.326 28.857-17.845 17.314-28.39 41.224-28.39 68.432v0 410.589c0 26.383 11.356 51.118 28.39 68.432 17.034 18.138 40.558 28.857 67.326 28.857v0h133.84v1.649c0 20.612 8.112 39.575 21.901 53.591s32.446 22.261 53.536 22.261v0zM633.673 725.128h-242.535c-8.923 0-17.034-3.298-22.712-9.069s-8.923-14.016-8.923-23.085v0-23.91c0-12.367-9.734-22.261-21.901-22.261v0h-156.553c-14.601 0-27.579-5.771-37.313-15.665s-15.412-23.085-15.412-37.926v0-410.589c0-14.841 5.678-28.032 15.412-37.926s22.712-15.665 37.313-15.665v0h661.901c14.601 0 27.579 5.771 37.313 15.665s15.412 23.085 15.412 37.926v0h0.811v410.589c0 14.841-5.678 28.032-15.412 37.926s-22.712 15.665-37.313 15.665v0h-156.553c-12.167 0-21.901 9.894-21.901 22.261v0 23.91c0 9.069-3.245 17.314-8.923 23.085s-13.79 9.069-22.712 9.069v0zM512 590.738c55.158 0 105.45-23.085 141.141-59.362s58.403-87.395 58.403-143.459c0-56.064-21.901-106.357-58.403-143.459-35.691-36.277-85.982-59.362-141.141-59.362s-104.639 22.261-141.141 59.362c-35.691 36.277-58.403 87.395-58.403 143.459s21.901 106.357 58.403 143.459c35.691 36.277 85.982 59.362 141.141 59.362zM512 545.392c-42.991 0-81.926-17.314-110.317-46.171-27.579-28.857-45.425-68.432-45.425-112.129s17.034-83.272 45.425-112.129c28.39-28.032 67.326-46.171 110.317-46.171s81.926 18.138 110.317 46.171c28.39 28.857 46.236 68.432 45.425 112.129 0 43.697-17.034 83.272-45.425 112.129-28.39 28.032-67.326 46.171-110.317 46.171zM800.771 591.562c21.951 0 39.747-18.087 39.747-40.399s-17.795-40.399-39.747-40.399c-21.951 0-39.747 18.087-39.747 40.399s17.795 40.399 39.747 40.399z" />
<glyph unicode="&#xe904;" glyph-name="card" d="M85.333 654.223c0 77.639 34.522 113.778 106.667 113.778h640c66.015 0 106.667-32.759 106.667-113.778v-455.111c0-67.208-16.042-113.778-106.667-113.778h-640c-91.988 0-106.667 52.773-106.667 113.778v455.111zM192 693.503c-19.627 0-35.556-16.687-35.556-37.249v-37.249h711.111v37.249c0 20.561-15.929 37.249-35.556 37.249h-640zM867.556 544.508h-711.111v-335.238c0-20.561 15.929-37.249 35.556-37.249h640c19.627 0 35.556 16.687 35.556 37.249v335.238zM227.556 283.768c0 20.561 15.929 37.249 35.556 37.249h213.333c19.627 0 35.556-16.687 35.556-37.249s-15.929-37.249-35.556-37.249h-213.333c-19.627 0-35.556 16.687-35.556 37.249v0z" />
<glyph unicode="&#xe905;" glyph-name="chart-pie" d="M512 775.758c0 19.27 15.639 34.909 34.909 34.909 192.803 0 349.091-156.288 349.091-349.091 0-19.27-15.639-34.909-34.909-34.909h-36.62c1.117-11.485 1.711-23.145 1.711-34.909 0-192.803-156.288-349.091-349.091-349.091s-349.091 156.288-349.091 349.091c0 192.803 156.288 349.091 349.091 349.091 11.764 0 23.424-0.593 34.909-1.711v36.62zM512 668.866c-11.415 1.431-23.075 2.164-34.909 2.164-154.228 0-279.273-125.044-279.273-279.273s125.044-279.273 279.273-279.273c154.228 0 279.273 125.044 279.273 279.273 0 11.834-0.733 23.494-2.164 34.909h-207.29c-19.27 0-34.909 15.639-34.909 34.909v207.29zM581.818 738.684v-242.199h242.199c-15.744 126.336-115.863 226.455-242.199 242.199v0z" />
<glyph unicode="&#xe906;" glyph-name="check" d="M357.357 74.667c6.211 0 11.179 1.97 14.905 5.909v0l558.952 590.909c4.968 5.253 7.453 11.162 7.453 17.727s-2.484 11.818-7.453 15.758v0l-52.169 57.121c-4.968 3.939-10.558 5.909-16.769 5.909s-11.179-1.97-14.905-5.909v0l-490.015-520-180.728 191.061c-3.726 5.253-8.695 7.879-14.905 7.879s-11.8-2.626-16.769-7.879v0l-52.169-55.152c-4.968-5.253-7.453-11.162-7.453-17.727s2.484-11.818 7.453-15.758v0l247.802-263.939c4.968-3.939 10.558-5.909 16.769-5.909z" />
<glyph unicode="&#xe907;" glyph-name="chevron-down" d="M180.338 666.188c-21.734 21.972-56.971 21.972-78.704 0s-21.734-57.597 0-79.569l371.014-375.092c21.734-21.972 56.971-21.972 78.704 0l371.014 375.092c21.734 21.972 21.734 57.597 0 79.569s-56.971 21.972-78.704 0l-331.662-335.307-331.662 335.307z" />
<glyph unicode="&#xe908;" glyph-name="chevron-left" d="M727.14 758.329c21.972 21.734 21.972 56.971 0 78.704s-57.597 21.734-79.569 0l-375.092-371.014c-21.972-21.734-21.972-56.971 0-78.704l375.092-371.014c21.972-21.734 57.597-21.734 79.569 0s21.972 56.971 0 78.704l-335.307 331.662 335.307 331.662z" />
<glyph unicode="&#xe909;" glyph-name="chevron-up" d="M843.662 211.527c21.734-21.972 56.971-21.972 78.704 0s21.734 57.597 0 79.569l-371.014 375.092c-21.734 21.972-56.971 21.972-78.704 0l-371.014-375.092c-21.734-21.972-21.734-57.597 0-79.569s56.971-21.972 78.704 0l331.662 335.307 331.662-335.307z" />
<glyph unicode="&#xe90a;" glyph-name="clip" d="M196.821 452.745c-13.496 13.283-13.496 34.788 0 48.072l244.028 240.188c94.367 92.882 247.342 92.882 341.709 0 94.367-92.848 94.367-243.416 0-336.298l-317.271-312.279c-67.41-66.349-176.688-66.349-244.063 0-67.41 66.315-67.41 173.873 0 240.222l268.466 264.241c40.418 39.816 105.999 39.816 146.452 0 40.418-39.816 40.418-104.331 0-144.147l-195.292-192.185c-13.461-13.249-35.31-13.249-48.806 0-13.461 13.283-13.461 34.788 0 48.038l195.257 192.219c13.496 13.249 13.496 34.754 0 48.038-13.461 13.249-35.31 13.249-48.806 0l-268.466-264.275c-40.453-39.782-40.453-104.331 0-144.113 40.453-39.816 105.999-39.816 146.417 0l317.306 312.279c67.375 66.349 67.375 173.907 0 240.222-67.41 66.349-176.653 66.349-244.063 0l-244.063-240.222c-13.496-13.249-35.344-13.249-48.806 0z" />
<glyph unicode="&#xe90b;" glyph-name="comment-circle" d="M513.784 741.173c-172.727 0-312.722-139.995-312.722-312.722 0-59.973 16.852-115.916 46.074-163.484l9.416-15.323-58.827-137.25 137.25 58.827 15.358-9.416c47.534-29.222 103.476-46.074 163.449-46.074 172.727 0 312.722 139.995 312.722 312.722s-139.995 312.722-312.722 312.722zM131.568 428.451c0 211.087 171.129 382.216 382.216 382.216s382.216-171.129 382.216-382.216c0-211.087-171.129-382.216-382.216-382.216-66.645 0-129.397 17.095-184.020 47.117l-104.658-44.858c-57.68-24.705-115.985 33.6-91.28 91.28l44.858 104.658c-30.021 54.622-47.117 117.375-47.117 184.020zM340.050 497.945c0 19.18 15.567 34.747 34.747 34.747h104.241c19.18 0 34.747-15.567 34.747-34.747s-15.567-34.747-34.747-34.747h-104.241c-19.18 0-34.747 15.567-34.747 34.747zM340.050 358.957c0 19.18 15.567 34.747 34.747 34.747h277.975c19.18 0 34.747-15.567 34.747-34.747s-15.567-34.747-34.747-34.747h-277.975c-19.18 0-34.747 15.567-34.747 34.747v0z" />
<glyph unicode="&#xe90c;" glyph-name="comment" d="M192 695.867c-19.627 0-35.556-16.158-35.556-36.067v-490.002l81.529 82.701c6.649 6.781 15.716 10.568 25.138 10.568h568.889c19.627 0 35.556 16.158 35.556 36.067v360.667c0 19.909-15.929 36.067-35.556 36.067h-640zM85.333 659.8c0 59.762 47.751 108.2 106.667 108.2h640c58.916 0 106.667-48.438 106.667-108.2v-360.667c0-59.762-47.751-108.2-106.667-108.2h-554.169l-71.111-72.133c-44.8-45.444-121.387-13.273-121.387 50.998v490.002zM334.222 551.6c0 19.909 15.929 36.067 35.556 36.067h106.667c19.627 0 35.556-16.158 35.556-36.067s-15.929-36.067-35.556-36.067h-106.667c-19.627 0-35.556 16.158-35.556 36.067zM334.222 407.334c0 19.909 15.929 36.067 35.556 36.067h284.444c19.627 0 35.556-16.158 35.556-36.067s-15.929-36.067-35.556-36.067h-284.444c-19.627 0-35.556 16.158-35.556 36.067v0z" />
<glyph unicode="&#xe90d;" glyph-name="cross-light" d="M554.428 426.665l332.785 332.787c11.716 11.716 11.716 30.712 0 42.427s-30.712 11.716-42.427 0l-332.786-332.787-332.785 332.787c-11.716 11.716-30.712 11.716-42.427 0s-11.716-30.712 0-42.427l332.785-332.785-332.785-332.787c-11.716-11.716-11.716-30.712 0-42.427 5.857-5.857 13.536-8.785 21.214-8.785s15.355 2.928 21.214 8.785l332.783 332.785 332.785-332.785c5.857-5.857 13.536-8.785 21.214-8.785s15.355 2.928 21.214 8.785c11.716 11.716 11.716 30.712 0 42.427l-332.785 332.785z" />
<glyph unicode="&#xe90e;" glyph-name="cross-solid" d="M797.6 42.667c11.2 0 20 4 26.4 12v0l60 60c8 6.4 12 15.2 12 26.4s-4 20-12 26.4v0l-256.8 259.2 256.8 259.2c8 6.4 12 15.2 12 26.4s-4 20-12 26.4v0l-60 60c-6.4 8-15.2 12-26.4 12s-20-4-26.4-12v0l-259.2-256.8-259.2 256.8c-6.4 8-15.2 12-26.4 12s-20-4-26.4-12v0l-60-60c-8-6.4-12-15.2-12-26.4s4-20 12-26.4v0l256.8-259.2-256.8-259.2c-8-6.4-12-15.2-12-26.4s4-20 12-26.4v0l60-60c6.4-8 15.2-12 26.4-12s20 4 26.4 12v0l259.2 256.8 259.2-256.8c6.4-8 15.2-12 26.4-12z" />
<glyph unicode="&#xe90f;" glyph-name="danger-triangle-solid" d="M889.242 186.448l-336.945 558.794c-8.516 14.123-23.805 22.758-40.298 22.758s-31.782-8.634-40.298-22.758l-336.942-558.794c-8.763-14.534-9.023-32.661-0.677-47.438 8.346-14.778 24.002-23.916 40.973-23.916h673.889c16.971 0 32.627 9.14 40.973 23.916 8.346 14.778 8.088 32.904-0.675 47.438zM512.251 574.707c19.352 0 35.726-10.917 35.726-30.267 0-59.045-6.947-143.894-6.947-202.938 0-15.383-16.871-21.831-28.779-21.831-15.876 0-29.274 6.45-29.274 21.831 0 59.045-6.945 143.894-6.945 202.938 0 19.35 15.876 30.267 36.219 30.267zM512.747 209.020c-21.831 0-38.207 17.862-38.207 38.205 0 20.84 16.374 38.205 38.207 38.205 20.343 0 37.71-17.366 37.71-38.205 0-20.343-17.367-38.205-37.71-38.205z" />
<glyph unicode="&#xe910;" glyph-name="date-cross" d="M753.371 810.667c16.663 0 30.434-12.383 32.614-28.448l0.3-4.466 0.013-55.35c61.505-5.549 109.701-57.243 109.701-120.193v-438.857c0-66.653-54.033-120.686-120.686-120.686h-526.629c-66.653 0-120.686 54.033-120.686 120.686v438.857c0 62.95 48.196 114.643 109.701 120.193l0.013 55.35c0 18.178 14.736 32.914 32.914 32.914 16.663 0 30.434-12.383 32.614-28.448l0.3-4.466-0.012-54.851h175.531l0.024 54.851c0 16.663 12.383 30.434 28.448 32.614l4.466 0.3c16.663 0 30.434-12.383 32.614-28.448l0.3-4.466-0.018-54.851h175.531l0.030 54.851c0 16.663 12.383 30.434 28.448 32.614l4.466 0.3zM270.345 657.068l-21.659-0.001c-30.297 0-54.857-24.56-54.857-54.857v-438.857c0-30.297 24.56-54.857 54.857-54.857h526.629c30.297 0 54.857 24.56 54.857 54.857v438.857c0 30.297-24.56 54.857-54.857 54.857l-21.394 0.043-0.549-0.043-0.281 0.001h-482.746zM432.839 494.351l3.692-3.187 69.806-69.805 69.837 69.805c11.685 11.685 29.971 12.748 42.856 3.187l3.692-3.187c11.685-11.685 12.748-29.971 3.187-42.856l-3.187-3.692-69.836-69.806 69.836-69.837c11.685-11.685 12.748-29.971 3.187-42.856l-3.187-3.692c-11.685-11.685-29.971-12.748-42.856-3.187l-3.692 3.187-69.837 69.836-69.806-69.836c-11.685-11.685-29.971-12.748-42.856-3.187l-3.692 3.187c-11.685 11.685-12.748 29.971-3.187 42.856l3.187 3.692 69.805 69.837-69.805 69.806c-11.685 11.685-12.748 29.971-3.187 42.856l3.187 3.692c11.685 11.685 29.971 12.748 42.856 3.187z" />
<glyph unicode="&#xe911;" glyph-name="date-minus" d="M753.371 810.667c16.663 0 30.434-12.383 32.614-28.448l0.3-4.466 0.013-55.35c61.505-5.549 109.701-57.243 109.701-120.193v-438.857c0-66.653-54.033-120.686-120.686-120.686h-526.629c-66.653 0-120.686 54.033-120.686 120.686v438.857c0 62.95 48.196 114.643 109.701 120.193l0.013 55.35c0 18.178 14.736 32.914 32.914 32.914 16.663 0 30.434-12.383 32.614-28.448l0.3-4.466-0.012-54.851h175.531l0.024 54.851c0 16.663 12.383 30.434 28.448 32.614l4.466 0.3c16.663 0 30.434-12.383 32.614-28.448l0.3-4.466-0.018-54.851h175.531l0.030 54.851c0 16.663 12.383 30.434 28.448 32.614l4.466 0.3zM270.345 657.068l-21.659-0.001c-30.297 0-54.857-24.56-54.857-54.857v-438.857c0-30.297 24.56-54.857 54.857-54.857h526.629c30.297 0 54.857 24.56 54.857 54.857v438.857c0 30.297-24.56 54.857-54.857 54.857l-21.394 0.043-0.549-0.043-0.281 0.001h-482.746zM643.657 415.696c18.178 0 32.914-14.736 32.914-32.914s-14.736-32.914-32.914-32.914v0h-263.314c-18.178 0-32.914 14.736-32.914 32.914s14.736 32.914 32.914 32.914v0z" />
<glyph unicode="&#xe912;" glyph-name="date-plus" d="M753.371 810.667c16.663 0 30.434-12.383 32.614-28.448l0.3-4.466 0.013-55.35c61.505-5.549 109.701-57.243 109.701-120.193v-438.857c0-66.653-54.033-120.686-120.686-120.686h-526.629c-66.653 0-120.686 54.033-120.686 120.686v438.857c0 62.95 48.196 114.643 109.701 120.193l0.013 55.35c0 18.178 14.736 32.914 32.914 32.914 16.663 0 30.434-12.383 32.614-28.448l0.3-4.466-0.012-54.851h175.531l0.024 54.851c0 16.663 12.383 30.434 28.448 32.614l4.466 0.3c16.663 0 30.434-12.383 32.614-28.448l0.3-4.466-0.018-54.851h175.531l0.030 54.851c0 16.663 12.383 30.434 28.448 32.614l4.466 0.3zM270.345 657.068l-21.659-0.001c-30.297 0-54.857-24.56-54.857-54.857v-438.857c0-30.297 24.56-54.857 54.857-54.857h526.629c30.297 0 54.857 24.56 54.857 54.857v438.857c0 30.297-24.56 54.857-54.857 54.857l-21.394 0.043-0.549-0.043-0.281 0.001h-482.746zM512 547.353c16.663 0 30.434-12.383 32.614-28.448l0.3-4.466-0.024-98.712 98.767-0.030c16.663 0 30.434-12.383 32.614-28.448l0.3-4.466c0-16.663-12.383-30.434-28.448-32.614l-4.466-0.3-98.767 0.024 0.024-98.767c0-16.663-12.383-30.434-28.448-32.614l-4.466-0.3c-16.663 0-30.434 12.383-32.614 28.448l-0.3 4.466-0.030 98.767-98.712-0.024c-16.663 0-30.434 12.383-32.614 28.448l-0.3 4.466c0 16.663 12.383 30.434 28.448 32.614l4.466 0.3 98.712 0.030 0.030 98.712c0 16.663 12.383 30.434 28.448 32.614l4.466 0.3z" />
<glyph unicode="&#xe913;" glyph-name="date" d="M753.371 810.667c18.178 0 32.914-14.736 32.914-32.914v0l0.013-55.35c61.505-5.549 109.701-57.243 109.701-120.193v-438.857c0-66.653-54.033-120.686-120.686-120.686h-526.629c-66.653 0-120.686 54.033-120.686 120.686v438.857c0 62.95 48.196 114.643 109.701 120.193l0.013 55.35c0 18.178 14.736 32.914 32.914 32.914s32.914-14.736 32.914-32.914v0l-0.012-54.851h175.531l0.024 54.851c0 16.663 12.383 30.434 28.448 32.614l4.466 0.3c18.178 0 32.914-14.736 32.914-32.914v0l-0.018-54.851h175.531l0.030 54.851c0 16.663 12.383 30.434 28.448 32.614zM830.165 459.606h-636.373l0.037-296.253c0-30.297 24.56-54.857 54.857-54.857h526.629c30.297 0 54.857 24.56 54.857 54.857l-0.006 296.253zM511.433 657.072l-240.804-0.005c-0.189 0-0.378 0.002-0.567 0.005l-21.376-0.005c-30.297 0-54.857-24.56-54.857-54.857l-0.037-76.77h636.373l0.006 76.77c0 30.297-24.56 54.857-54.857 54.857l-21.394 0.043-0.549-0.043c-0.188 0-0.375 0.002-0.562 0.005l-240.81-0.005c-0.189 0-0.378 0.002-0.567 0.005z" />
<glyph unicode="&#xe914;" glyph-name="doc" d="M318.129 782.223c-19.282 0-34.932-15.929-34.932-35.556v-640c0-19.627 15.649-35.556 34.932-35.556h419.181c19.282 0 34.932 15.929 34.932 35.556v426.667h-139.727c-57.882 0-104.795 47.751-104.795 106.667v142.222h-209.591zM597.583 731.947l125.265-127.502h-90.334c-19.282 0-34.932 15.929-34.932 35.556v91.947zM213.333 746.667c0 58.916 46.913 106.667 104.795 106.667h244.522c9.257 0 18.165-3.733 24.697-10.418l244.522-248.889c6.567-6.649 10.235-15.716 10.235-25.138v-462.222c0-58.916-46.913-106.667-104.795-106.667h-419.181c-57.882 0-104.795 47.751-104.795 106.667v640zM387.992 355.556c0 19.627 15.649 35.556 34.932 35.556h104.795c19.282 0 34.932-15.929 34.932-35.556s-15.649-35.556-34.932-35.556h-104.795c-19.282 0-34.932 15.929-34.932 35.556zM387.992 213.334c0 19.627 15.649 35.556 34.932 35.556h209.591c19.282 0 34.932-15.929 34.932-35.556s-15.649-35.556-34.932-35.556h-209.591c-19.282 0-34.932 15.929-34.932 35.556v0z" />
<glyph unicode="&#xe915;" glyph-name="dot-solid" d="M938.667 426.667c0-235.641-191.025-426.667-426.667-426.667s-426.667 191.025-426.667 426.667c0 235.641 191.025 426.667 426.667 426.667s426.667-191.025 426.667-426.667z" />
<glyph unicode="&#xe916;" glyph-name="download-file-light" d="M673.867 491.048v139.728c0 3.999-1.848 7.695-4.461 10.618l-156.655 164.502c-2.924 3.076-7.081 4.771-11.232 4.771h-248.372c-45.853 0-82.479-37.392-82.479-83.251v-469.655c0-45.859 36.626-82.637 82.479-82.637h196.053c37.082-61.552 104.487-102.792 181.271-102.792 116.644 0 211.899 94.793 211.899 211.589 0.157 102.026-73.095 187.276-168.502 207.127zM516.908 756.652l105.101-110.639h-68.171c-20.313 0-36.93 16.77-36.93 37.082v73.556zM253.146 205.903c-28.774 0-51.7 23.084-51.7 51.858v469.655c0 28.931 22.927 52.472 51.7 52.472h232.983v-96.793c0-37.392 30.317-67.861 67.709-67.861h89.25v-120.181c-4.613 0.152-8.309 0.614-12.308 0.614-53.705 0-103.102-20.623-140.342-52.939h-195.433c-8.466 0-15.389-6.923-15.389-15.384 0-8.466 6.923-15.389 15.389-15.389h166.811c-10.928-15.389-20.009-30.779-27.084-47.706h-139.728c-8.466 0-15.389-6.923-15.389-15.389 0-8.461 6.923-15.389 15.389-15.389h129.723c-3.847-15.389-5.847-32.469-5.847-49.548 0-27.698 5.385-55.091 15.080-78.175l-180.815 0.158zM630.628 102.953c-99.716 0-180.815 81.099-180.815 180.815s80.941 180.815 180.815 180.815c99.868 0 180.81-81.099 180.81-180.815s-81.093-180.815-180.81-180.815zM295.005 489.048h155.883c8.466 0 15.389 6.929 15.389 15.389 0 8.466-6.923 15.389-15.389 15.389h-155.883c-8.466 0-15.389-6.923-15.389-15.389 0-8.461 6.923-15.389 15.389-15.389zM619.237 169.277c2.924-3.076 6.923-4.923 11.232-4.923s8.309 1.848 11.232 4.923l90.179 96.793c5.847 6.157 5.385 16.003-0.772 21.698-6.157 5.847-16.156 5.385-22.003-0.766l-63.71-68.171v168.039c0 8.466-6.923 15.389-15.389 15.389-8.461 0-15.389-6.923-15.389-15.389v-168.039l-63.242 68.171c-3.081 3.228-7.081 4.923-11.238 4.923-3.69 0-7.385-1.386-10.461-4.157-6.157-5.847-6.619-15.542-0.772-21.698l90.332-96.793z" />
<glyph unicode="&#xe917;" glyph-name="file-contract" d="M736-0c20.741 0 38.37 7.778 52.889 23.333s21.778 34.444 21.778 56.667v0 553.333c0 22.222-7.259 41.111-21.778 56.667v0l-130.667 140c-14.519 15.556-32.148 23.333-52.889 23.333v0h-317.333c-20.741 0-38.37-7.778-52.889-23.333s-21.778-34.444-21.778-56.667v0-693.333c0-22.222 7.259-41.111 21.778-56.667s32.148-23.333 52.889-23.333v0h448zM736 53.334h-448c-7.259 0-13.222 2.5-17.889 7.5s-7 11.389-7 19.167v0 693.333c0 7.778 2.333 14.167 7 19.167s10.63 7.5 17.889 7.5v0h273.778v-173.333c0-11.111 3.63-20.556 10.889-28.333s16.074-11.667 26.444-11.667v0h161.778v-506.667c0-7.778-2.333-14.167-7-19.167s-10.63-7.5-17.889-7.5v0zM760.889 640h-149.333v158.333c4.148-1.111 7.778-3.333 10.889-6.667v0l130.667-140c3.111-3.333 5.704-7.222 7.778-11.667v0zM499.556 693.334c3.111 0 5.963 1.389 8.556 4.167s3.889 5.833 3.889 9.167v0 26.667c0 3.333-1.296 6.389-3.889 9.167s-5.444 4.167-8.556 4.167v0h-174.222c-3.111 0-5.963-1.389-8.556-4.167s-3.889-5.833-3.889-9.167v0-26.667c0-3.333 1.296-6.389 3.889-9.167s5.444-4.167 8.556-4.167v0h174.222zM499.556 586.667c3.111 0 5.963 1.389 8.556 4.167s3.889 5.833 3.889 9.167v0 26.667c0 3.333-1.296 6.389-3.889 9.167s-5.444 4.167-8.556 4.167v0h-174.222c-3.111 0-5.963-1.389-8.556-4.167s-3.889-5.833-3.889-9.167v0-26.667c0-3.333 1.296-6.389 3.889-9.167s5.444-4.167 8.556-4.167v0h174.222zM381.333 160c14.519 0 27.741 4.444 39.667 13.333s19.963 21.111 24.111 36.667v0l17.111 51.667 26.444-83.333c3.111-11.111 10.37-17.222 21.778-18.333v0h1.556c10.37 0 17.63 5 21.778 15v0l12.444 25c3.111 6.667 8.296 10 15.556 10s12.444-3.333 15.556-10c6.222-12.222 14.519-21.944 24.889-29.167s22.296-10.833 35.778-10.833v0h23.333c7.259 0 13.222 2.5 17.889 7.5s7 11.389 7 19.167c0 7.778-2.333 14.167-7 19.167s-10.63 7.5-17.889 7.5v0h-23.333c-7.259 0-12.444 3.889-15.556 11.667-9.333 18.889-24.889 30.833-46.667 35.833s-40.444 0.833-56-12.5v0l-21.778 68.333c-3.111 8.889-7.778 15.833-14 20.833s-13.481 7.5-21.778 7.5c-8.296 0-15.556-2.5-21.778-7.5s-10.889-11.944-14-20.833v0l-28-90c-3.111-8.889-8.815-13.333-17.111-13.333v0h-18.667c-7.259 0-13.222-2.5-17.889-7.5s-7-11.389-7-19.167c0-7.778 2.333-14.167 7-19.167s10.63-7.5 17.889-7.5v0h18.667z" />
<glyph unicode="&#xe918;" glyph-name="file" d="M318.129 782.223c-19.282 0-34.932-15.929-34.932-35.556v-640c0-19.627 15.649-35.556 34.932-35.556h419.181c19.282 0 34.932 15.929 34.932 35.556v426.667h-139.727c-57.882 0-104.795 47.751-104.795 106.667v142.222h-209.591zM597.583 731.947l125.265-127.502h-90.334c-19.282 0-34.932 15.929-34.932 35.556v91.947zM213.333 746.667c0 58.916 46.913 106.667 104.795 106.667h244.522c9.257 0 18.13-3.733 24.697-10.418l244.522-248.889c6.567-6.649 10.235-15.716 10.235-25.138v-462.222c0-58.916-46.913-106.667-104.795-106.667h-419.181c-57.882 0-104.795 47.751-104.795 106.667v640z" />
<glyph unicode="&#xe919;" glyph-name="filter-solid" d="M551 49.282c12-7.994 24.5-8.743 37.5-2.248s19.5 17.236 19.5 32.224v0 392.683l277.5 277.276c7 6.994 10.5 15.487 10.5 25.479s-3.5 18.485-10.5 25.479c-7 6.994-15.5 10.492-25.5 10.492v0h-696c-10 0-18.5-3.497-25.5-10.492s-10.5-15.487-10.5-25.479c0-9.992 3.5-18.485 10.5-25.479v0l277.5-277.276v-308.75c0-11.99 5-21.982 15-29.976v0l120-83.932z" />
<glyph unicode="&#xe91a;" glyph-name="folder" d="M192 693.503c-19.627 0-35.556-16.687-35.556-37.249v-446.984c0-20.561 15.929-37.249 35.556-37.249h640c19.627 0 35.556 16.687 35.556 37.249v335.238c0 20.561-15.929 37.249-35.556 37.249h-355.556c-9.422 0-18.489 3.911-25.138 10.914l-85.831 89.918c-6.684 7.003-15.716 10.914-25.173 10.914h-148.302zM85.333 656.254c0 61.721 47.751 111.746 106.667 111.746h148.302c28.302 0 55.431-11.771 75.449-32.742l75.413-79.004h340.836c58.916 0 106.667-50.025 106.667-111.746v-335.238c0-61.721-47.751-111.746-106.667-111.746h-640c-58.916 0-106.667 50.025-106.667 111.746v446.984z" />
<glyph unicode="&#xe91b;" glyph-name="gear-light" d="M536.101 810.667c38.983 0 70.699-31.716 70.699-70.699v-16.307c16.573-5.295 32.676-11.979 48.146-19.984l11.556 11.556c27.989 28.023 72.822 27.201 99.997-0.011l34.067-34.065c27.224-27.194 28.006-72.012-0.009-99.998l-11.547-11.547c8.005-15.47 14.688-31.569 19.984-48.146h16.305c38.984 0 70.701-31.716 70.701-70.699v-48.201c0-38.984-31.717-70.699-70.701-70.699h-16.305c-5.296-16.575-11.979-32.676-19.984-48.146l11.556-11.556c27.999-27.969 27.227-72.792-0.009-99.997l-34.069-34.068c-27.239-27.276-72.061-27.957-99.996 0.009l-11.545 11.545c-15.469-8.004-31.572-14.688-48.146-19.984v-16.307c0-38.981-31.716-70.696-70.701-70.696h-48.2c-38.983 0-70.701 31.716-70.701 70.699v16.307c-16.573 5.295-32.676 11.979-48.145 19.984l-11.556-11.556c-27.989-28.023-72.822-27.201-99.998 0.011l-34.066 34.065c-27.223 27.194-28.007 72.012 0.009 99.997l11.547 11.547c-8.006 15.469-14.688 31.569-19.985 48.146h-16.305c-38.982 0-70.699 31.716-70.699 70.699v48.201c0 38.983 31.718 70.699 70.701 70.699h16.305c5.296 16.575 11.979 32.676 19.984 48.146l-11.556 11.554c-27.999 27.969-27.226 72.792 0.009 99.998l34.070 34.068c27.238 27.276 72.061 27.957 99.996-0.009l11.545-11.546c15.47 8.004 31.572 14.688 48.146 19.985v16.305c0 38.983 31.716 70.699 70.701 70.699h48.2zM536.102 765.667h-48.2c-14.171 0-25.701-11.529-25.701-25.699v-33.222c0-10.261-6.942-19.222-16.878-21.786-24.126-6.226-47.256-15.828-68.746-28.538-8.844-5.227-20.102-3.805-27.365 3.458l-23.532 23.534c-10.146 10.158-26.441 9.922-36.336 0.010l-34.091-34.089c-9.873-9.861-10.203-26.155-0.009-36.337l23.542-23.543c7.263-7.263 8.685-18.522 3.458-27.363-12.71-21.489-22.31-44.619-28.536-68.747-2.565-9.936-11.526-16.876-21.786-16.876h-33.222c-14.171-0.002-25.701-11.531-25.701-25.701v-48.201c0-14.171 11.53-25.699 25.701-25.699h33.221c10.261 0 19.221-6.942 21.786-16.877 6.226-24.127 15.828-47.257 28.536-68.747 5.227-8.841 3.806-20.1-3.458-27.363l-23.533-23.533c-10.173-10.161-9.907-26.451-0.009-36.337l34.087-34.088c9.881-9.894 26.177-10.184 36.338-0.009l23.541 23.543c5.352 5.35 16.486 9.891 27.366 3.456 21.491-12.709 44.621-22.311 68.747-28.538 9.936-2.563 16.878-11.524 16.878-21.786v-33.222c0-14.171 11.531-25.699 25.701-25.699h48.2c14.171 0 25.701 11.529 25.701 25.699v33.222c0 10.261 6.942 19.222 16.878 21.786 24.126 6.227 47.256 15.828 68.747 28.538 8.843 5.229 20.1 3.807 27.364-3.458l23.532-23.533c10.146-10.158 26.439-9.923 36.336-0.011l34.091 34.089c9.873 9.861 10.203 26.157 0.009 36.337l-23.542 23.543c-7.263 7.263-8.685 18.522-3.458 27.363 12.709 21.489 22.309 44.619 28.536 68.747 2.565 9.936 11.526 16.876 21.786 16.876h33.221c14.171 0 25.701 11.529 25.701 25.7v48.201c0 14.171-11.531 25.699-25.701 25.699h-33.221c-10.261 0-19.221 6.942-21.786 16.877-6.227 24.128-15.828 47.258-28.536 68.747-5.227 8.841-3.805 20.1 3.458 27.363l23.533 23.534c10.173 10.161 9.907 26.451 0.009 36.337l-34.088 34.087c-9.88 9.894-26.176 10.183-36.337 0.009l-23.541-23.542c-7.263-7.265-18.525-8.687-27.365-3.458-21.491 12.71-44.62 22.311-68.747 28.538-9.936 2.563-16.878 11.525-16.878 21.786v33.225c0 14.17-11.531 25.699-25.701 25.699zM512 591.238c90.746 0 164.571-73.827 164.571-164.571s-73.825-164.571-164.571-164.571c-90.746 0-164.571 73.827-164.571 164.571s73.825 164.571 164.571 164.571zM512 546.919c-66.309 0-120.252-53.945-120.252-120.252s53.945-120.252 120.252-120.252c66.307 0 120.252 53.945 120.252 120.252s-53.944 120.252-120.252 120.252z" />
<glyph unicode="&#xe91c;" glyph-name="help" d="M512 810.667c212.254 0 384-171.774 384-384 0-212.254-171.776-384-384-384v0h-354c-16.569 0-30 13.431-30 30v0 354c0 212.254 171.774 384 384 384zM512 750.667c-179.090 0-324-144.934-324-324v0-324h324c179.090 0 324 144.934 324 324 0 179.090-144.934 324-324 324zM511.672 309.797c27.501 0 50.415-22.767 50.415-50.087 0-26.671-22.262-50.087-50.415-50.087s-49.759 23.418-49.759 50.087c0 27.32 22.262 50.087 49.759 50.087zM507.439 610.319c72.972 0 121.431-36.9 121.431-85.753s-48.459-84.193-63.851-95.107c-31.355-22.347-31.927-37.938-31.927-64.963 0-9.875-5.7-21.307-33.635-21.307-23.375 0-31.355 7.796-31.355 34.82 0 44.695 21.664 66.004 38.196 78.996 18.813 14.552 50.739 30.662 50.739 58.728 0 23.906-22.804 35.34-51.31 35.34-58.149 0-45.608-40.018-76.392-40.018-15.394 0-34.205 9.354-34.205 29.624 0 28.064 35.345 69.64 112.308 69.64z" />
<glyph unicode="&#xe91d;" glyph-name="home-light" d="M446 109.715c5 0 9.25 1.714 12.75 5.143s5.25 7.592 5.25 12.49v0 193.959h96v-193.959c0-4.898 1.75-9.061 5.25-12.49s7.75-5.143 12.75-5.143v0h174c13 0 24.25 4.653 33.75 13.959s14.25 20.327 14.25 33.061v0 336.49l63-48.49c2-1.959 4.25-2.939 6.75-2.939s4.25 0.98 5.25 2.939v0l19.5 23.51c1 1.959 1.5 4.163 1.5 6.612s-1 4.163-3 5.143v0 1.469l-93 72v111.673c0 2.939-1 5.143-3 6.612s-4 2.204-6 2.204v0h-30c-2 0-4-0.735-6-2.204s-3-3.673-3-6.612v0-73.469l-210 166.041c-9 6.857-19 10.286-30 10.286s-21-3.429-30-10.286v0l-351-276.245c-2-1.959-3-4.163-3-6.612s0.5-4.653 1.5-6.612v0l19.5-22.041c1-1.959 2.75-3.184 5.25-3.673s4.75 0.245 6.75 2.204v0l63 48.49v-336.49c0-12.735 4.75-23.755 14.25-33.061s20.75-13.959 33.75-13.959v0h174zM416 156.735h-144v374.694l234 185.143c4 2.939 8 2.939 12 0v0l234-185.143v-374.694h-144v193.959c0 4.898-1.75 9.061-5.25 12.49s-7.75 5.143-12.75 5.143v0h-156c-5 0-9.25-1.714-12.75-5.143s-5.25-7.592-5.25-12.49v0-193.959z" />
<glyph unicode="&#xe91e;" glyph-name="info-circle-solid" d="M511.982 853.334c-235.61 0-426.649-191.038-426.649-426.649s191.038-426.685 426.649-426.685c235.61 0 426.685 191.074 426.685 426.685s-191.074 426.649-426.685 426.649zM600.801 192.086c-21.961-8.669-39.443-15.243-52.554-19.794-13.075-4.551-28.282-6.827-45.583-6.827-26.584 0-47.281 6.502-62.018 19.469s-22.069 29.402-22.069 49.376c0 7.766 0.542 15.712 1.625 23.803 1.12 8.091 2.89 17.193 5.31 27.415l27.487 97.090c2.42 9.319 4.515 18.168 6.177 26.404 1.662 8.308 2.456 15.929 2.456 22.864 0 12.353-2.565 21.022-7.657 25.898-5.165 4.876-14.881 7.26-29.366 7.26-7.080 0-14.376-1.047-21.853-3.251-7.405-2.276-13.834-4.334-19.107-6.357l7.26 29.907c17.988 7.332 35.217 13.617 51.652 18.818 16.435 5.274 31.966 7.874 46.595 7.874 26.404 0 46.775-6.429 61.115-19.144 14.267-12.75 21.455-29.329 21.455-49.701 0-4.226-0.506-11.667-1.481-22.286-0.975-10.655-2.817-20.372-5.49-29.293l-27.343-96.801c-2.239-7.766-4.226-16.651-6.032-26.584-1.77-9.933-2.637-17.518-2.637-22.611 0-12.859 2.853-21.636 8.633-26.295 5.707-4.659 15.712-7.007 29.871-7.007 6.682 0 14.159 1.192 22.611 3.504 8.38 2.312 14.448 4.371 18.277 6.14l-7.332-29.871zM595.961 584.999c-12.75-11.847-28.101-17.771-46.053-17.771-17.915 0-33.375 5.924-46.234 17.771-12.786 11.847-19.252 26.259-19.252 43.091 0 16.796 6.502 31.244 19.252 43.199 12.859 11.992 28.318 17.952 46.234 17.952 17.952 0 33.339-5.96 46.053-17.952 12.75-11.956 19.144-26.404 19.144-43.199 0-16.868-6.393-31.244-19.144-43.091z" />
<glyph unicode="&#xe91f;" glyph-name="logout-light" d="M513.606 853.334c157.898 0 296.661-85.351 370.959-213.309 7.603-13.098 3.111-29.859-10.036-37.435-13.141-7.571-29.971-3.101-37.576 9.998-64.561 111.188-185.262 185.95-323.347 185.95-205.821 0-373.271-166.822-373.271-371.871s167.45-371.871 373.271-371.871c137.993 0 258.75 74.693 323.349 185.954 7.607 13.099 24.433 17.571 37.576 9.998 13.147-7.578 17.639-24.338 10.036-37.435-74.267-127.902-212.995-213.312-370.961-213.312-236.728 0-428.273 190.847-428.273 426.667 0 235.84 191.565 426.667 428.273 426.667zM868.6 497.21c0 22.159 25.152 35.172 43.349 22.392v0l100.436-70.542c15.642-11.010 15.332-34.020-0.005-44.785v0l-100.436-70.542c-18.062-12.683-43.347 0.088-43.347 22.392v0 43.143h-482.237c-15.187 0-27.502 12.265-27.502 27.397s12.315 27.399 27.502 27.399v0h482.241z" />
<glyph unicode="&#xe920;" glyph-name="long-arrow-down-light" d="M501.631-16.124l-220 266.666c-5.73 6.945-5.73 18.195 0 25.138 5.73 6.945 15.011 6.945 20.739 0l194.964-236.32v774.861c0 9.827 6.56 17.778 14.667 17.778s14.667-7.952 14.667-17.778v-774.861l194.963 236.32c5.73 6.945 15.011 6.945 20.739 0 2.864-3.472 4.297-8.022 4.297-12.57s-1.433-9.097-4.297-12.57l-220-266.666c-5.728-6.943-15.010-6.943-20.739 0.002z" />
<glyph unicode="&#xe921;" glyph-name="long-arrow-left-light" d="M90.542 449.631l266.666 228.571c6.945 5.953 18.195 5.953 25.138 0 6.945-5.953 6.945-15.596 0-21.547l-236.32-202.56h774.861c9.827 0 17.778-6.816 17.778-15.239s-7.952-15.239-17.778-15.239h-774.861l236.32-202.559c6.945-5.953 6.945-15.596 0-21.547-3.472-2.976-8.022-4.464-12.57-4.464s-9.097 1.489-12.57 4.464l-266.666 228.571c-6.943 5.951-6.943 15.594 0.002 21.547z" />
<glyph unicode="&#xe922;" glyph-name="long-arrow-right-light" d="M933.458 449.631l-266.666 228.571c-6.945 5.953-18.195 5.953-25.138 0-6.945-5.953-6.945-15.596 0-21.547l236.32-202.56h-774.861c-9.827 0-17.778-6.816-17.778-15.239s7.952-15.239 17.778-15.239h774.861l-236.32-202.559c-6.945-5.953-6.945-15.596 0-21.547 3.472-2.976 8.022-4.464 12.57-4.464s9.097 1.489 12.57 4.464l266.666 228.571c6.943 5.951 6.943 15.594-0.002 21.547z" />
<glyph unicode="&#xe923;" glyph-name="long-arrow-up-light" d="M501.631 826.791l-220-266.666c-5.73-6.945-5.73-18.195 0-25.138 5.73-6.945 15.011-6.945 20.739 0l194.964 236.32v-774.861c0-9.827 6.56-17.778 14.667-17.778s14.667 7.952 14.667 17.778v774.861l194.963-236.32c5.73-6.945 15.011-6.945 20.739 0 2.864 3.472 4.297 8.022 4.297 12.57s-1.433 9.097-4.297 12.57l-220 266.666c-5.728 6.943-15.010 6.943-20.739-0.002z" />
<glyph unicode="&#xe924;" glyph-name="marker" d="M512 781.338c-146.622 0-265.481-112.674-265.481-251.986 0-101.874 47.825-200.869 107.065-283.305 57.534-80.636 123.525-142.552 158.417-172.791 34.892 30.238 100.883 92.155 158.417 172.791 59.24 82.435 107.065 181.43 107.065 283.305 0 139.312-118.86 251.986-265.481 251.986zM170.667 529.351c0 178.91 152.804 323.982 341.333 323.982s341.333-145.072 341.333-323.982c0-122.393-56.927-235.427-120.149-323.982-63.564-88.555-136.002-155.871-172.639-187.55-27.724-23.759-69.367-23.759-97.090 0-36.636 31.678-109.075 98.995-172.639 187.55-63.223 88.555-120.149 201.589-120.149 323.982zM512 601.347c-41.87 0-75.852-32.398-75.852-71.996s33.982-71.996 75.852-71.996c41.87 0 75.852 32.398 75.852 71.996s-33.982 71.996-75.852 71.996zM360.296 529.351c0 79.556 67.925 143.992 151.704 143.992s151.704-64.436 151.704-143.992c0-79.556-67.925-143.992-151.704-143.992s-151.704 64.436-151.704 143.992v0z" />
<glyph unicode="&#xe925;" glyph-name="menu-dots" d="M226.849 240.364c54.593 0 98.849-44.256 98.849-98.849s-44.256-98.849-98.849-98.849c-54.593 0-98.849 44.256-98.849 98.849s44.256 98.849 98.849 98.849zM512 240.364c54.593 0 98.849-44.256 98.849-98.849s-44.256-98.849-98.849-98.849c-54.593 0-98.849 44.256-98.849 98.849s44.256 98.849 98.849 98.849zM797.151 240.364c54.593 0 98.849-44.256 98.849-98.849s-44.256-98.849-98.849-98.849c-54.593 0-98.849 44.256-98.849 98.849s44.256 98.849 98.849 98.849zM226.849 525.516c54.593 0 98.849-44.256 98.849-98.849s-44.256-98.849-98.849-98.849c-54.593 0-98.849 44.256-98.849 98.849s44.256 98.849 98.849 98.849zM512 525.516c54.593 0 98.849-44.256 98.849-98.849s-44.256-98.849-98.849-98.849c-54.593 0-98.849 44.256-98.849 98.849s44.256 98.849 98.849 98.849zM797.151 525.516c54.593 0 98.849-44.256 98.849-98.849s-44.256-98.849-98.849-98.849c-54.593 0-98.849 44.256-98.849 98.849s44.256 98.849 98.849 98.849zM226.849 810.667c54.593 0 98.849-44.256 98.849-98.849s-44.256-98.849-98.849-98.849c-54.593 0-98.849 44.256-98.849 98.849s44.256 98.849 98.849 98.849zM512 810.667c54.593 0 98.849-44.256 98.849-98.849s-44.256-98.849-98.849-98.849c-54.593 0-98.849 44.256-98.849 98.849s44.256 98.849 98.849 98.849zM797.151 810.667c54.593 0 98.849-44.256 98.849-98.849s-44.256-98.849-98.849-98.849c-54.593 0-98.849 44.256-98.849 98.849s44.256 98.849 98.849 98.849z" />
<glyph unicode="&#xe926;" glyph-name="menu-hamb" d="M618.667 175.543c11.776 0 21.333-14.746 21.333-32.914s-9.557-32.914-21.333-32.914h-469.333c-11.776 0-21.333 14.746-21.333 32.914s9.557 32.914 21.333 32.914h469.333zM864 471.772c17.664 0 32-14.746 32-32.914s-14.336-32.914-32-32.914h-704c-17.664 0-32 14.746-32 32.914s14.336 32.914 32 32.914h704zM741.333 768c14.72 0 26.667-14.746 26.667-32.914s-11.947-32.914-26.667-32.914h-586.667c-14.72 0-26.667 14.746-26.667 32.914s11.947 32.914 26.667 32.914h586.667z" />
<glyph unicode="&#xe927;" glyph-name="pen" d="M626.853 817.879c42.326 42.326 111.003 42.326 153.329 0l78.508-78.472c42.326-42.363 42.326-111.039 0-153.365l-506.037-506.037c-20.35-20.35-47.929-31.772-76.701-31.772h-150.763c-19.952 0-36.146 16.193-36.146 36.146v150.799c0 28.736 11.422 56.315 31.772 76.665l506.037 506.037zM729.072 766.769c-14.133 14.097-36.977 14.097-51.11 0l-67.917-67.917 129.618-129.618 67.917 67.917c14.097 14.133 14.097 36.977 0 51.11l-78.508 78.508zM688.553 518.124l-129.618 129.618-387.010-387.010c-6.795-6.795-10.591-15.976-10.591-25.555v-114.654h114.617c9.615 0 18.796 3.795 25.591 10.591l387.010 387.010z" />
<glyph unicode="&#xe928;" glyph-name="player" d="M512 853.334c235.641 0 426.667-191.025 426.667-426.667s-191.025-426.667-426.667-426.667c-235.641 0-426.667 191.025-426.667 426.667s191.025 426.667 426.667 426.667zM512 787.693c-199.389 0-361.026-161.637-361.026-361.026s161.637-361.026 361.026-361.026c199.389 0 361.026 161.637 361.026 361.026s-161.637 361.026-361.026 361.026zM445.265 563.916c7.11 0 14.107-1.777 20.355-5.168l174.243-94.583c20.71-11.242 28.385-37.143 17.143-57.853-3.937-7.252-9.891-13.207-17.143-17.143l-174.243-94.583c-20.71-11.242-46.611-3.566-57.853 17.143-3.392 6.248-5.168 13.245-5.168 20.355v189.166c0 23.564 19.103 42.667 42.667 42.667z" />
<glyph unicode="&#xe929;" glyph-name="plus" d="M512 810.667c27.662 0 50.087-22.425 50.087-50.087v0l-0.039-283.822 283.865-0.004c25.818 0 47.074-19.534 49.793-44.629l0.294-5.458c0-27.662-22.425-50.087-50.087-50.087v0l-283.865 0.039 0.039-283.865c0-25.818-19.534-47.074-44.629-49.793l-5.458-0.294c-27.662 0-50.087 22.425-50.087 50.087v0l-0.004 283.865-283.822-0.039c-25.818 0-47.074 19.534-49.793 44.629l-0.294 5.458c0 27.662 22.425 50.087 50.087 50.087v0l283.822 0.004 0.004 283.822c0 25.818 19.534 47.074 44.629 49.793z" />
<glyph unicode="&#xe92a;" glyph-name="refresh" d="M512 737.524c-81.849 0-155.556-37.303-206.472-97.28-12.907-14.994-35.378-16.823-50.169-3.291-14.756 13.166-16.249 36.206-3.342 51.566 63.68 74.606 156.481 122.149 259.984 122.149 190.828 0 344.642-160.549 348.375-358.4l17.316 18.286c13.725 14.263 36.231 14.629 50.276 0.366 14.045-13.897 14.293-36.937 0.569-51.566l-78.223-82.286c-6.684-6.949-15.858-10.971-25.422-10.971s-18.738 4.023-25.422 10.971l-78.223 82.286c-13.725 14.629-13.476 37.669 0.569 51.566 14.045 14.263 36.551 13.897 50.276-0.366l17.138-17.92c-3.769 158.72-127.183 284.891-277.228 284.891zM199.11 563.81c9.564 0 18.738-4.023 25.422-10.971l78.223-82.286c13.725-14.629 13.476-37.669-0.569-51.566-14.045-14.263-36.551-13.897-50.276 0.366l-17.138 17.92c3.769-158.72 127.183-284.891 277.228-284.891 81.849 0 155.556 37.303 206.472 97.28 12.907 14.994 35.378 16.823 50.169 3.291 14.756-13.166 16.249-36.206 3.342-51.566-63.68-74.606-156.481-122.149-259.984-122.149-190.828 0-344.642 160.549-348.375 358.4l-17.316-18.286c-13.725-14.263-36.231-14.629-50.276-0.366-14.045 13.897-14.293 36.937-0.569 51.566l78.223 82.286c6.684 6.949 15.858 10.971 25.422 10.971v0z" />
<glyph unicode="&#xe92b;" glyph-name="search-light" d="M677.789 260.751c10.274 10.359 26.966 10.403 37.294 0.097v0l173.15-172.943c10.319-10.315 10.363-27.070 0.097-37.439-5.151-5.197-11.919-7.8-18.695-7.8-6.732 0-13.448 2.568-18.598 7.703v0l-173.15 172.943c-10.319 10.316-10.363 27.072-0.097 37.439zM444.235 810.667c174.37 0 316.236-141.864 316.236-316.235s-141.867-316.235-316.236-316.235c-174.369 0-316.235 141.864-316.235 316.235s141.865 316.235 316.235 316.235zM444.235 758.685c-145.788 0-264.393-118.541-264.393-264.252 0-145.702 118.605-264.252 264.393-264.252 145.789 0 264.393 118.549 264.393 264.252 0 145.711-118.605 264.252-264.393 264.252z" />
<glyph unicode="&#xe92c;" glyph-name="share" d="M756.364 740.849c-38.54 0-69.818-31.279-69.818-69.818 0-11.276 2.653-21.853 7.331-31.209 11.52-22.97 35.188-38.609 62.487-38.609 38.54 0 69.818 31.279 69.818 69.818s-31.279 69.818-69.818 69.818zM616.727 671.031c0 77.114 62.522 139.636 139.636 139.636s139.636-62.522 139.636-139.636c0-77.114-62.522-139.636-139.636-139.636-42.065 0-79.732 18.607-105.321 47.965l-246.842-123.439c2.025-9.46 3.072-19.235 3.072-29.254s-1.047-19.793-3.072-29.254l246.842-123.439c25.588 29.359 63.255 47.965 105.321 47.965 77.114 0 139.636-62.522 139.636-139.636s-62.522-139.636-139.636-139.636c-77.114 0-139.636 62.522-139.636 139.636 0 10.019 1.047 19.793 3.072 29.254l-246.842 123.439c-25.588-29.359-63.255-47.965-105.321-47.965-77.114 0-139.636 62.522-139.636 139.636s62.522 139.636 139.636 139.636c42.065 0 79.732-18.607 105.321-47.965l246.842 123.439c-2.025 9.46-3.072 19.235-3.072 29.254zM267.636 496.485c-38.54 0-69.818-31.279-69.818-69.818s31.279-69.818 69.818-69.818c27.264 0 50.967 15.639 62.487 38.609 4.678 9.356 7.331 19.933 7.331 31.209s-2.653 21.853-7.331 31.209c-11.52 22.97-35.223 38.609-62.487 38.609zM756.364 252.122c-27.299 0-50.967-15.639-62.487-38.609-4.678-9.356-7.331-19.933-7.331-31.209 0-38.54 31.279-69.818 69.818-69.818s69.818 31.279 69.818 69.818c0 38.54-31.279 69.818-69.818 69.818v0z" />
<glyph unicode="&#xe92d;" glyph-name="shoping-bag" d="M353.255 586.667v-32c0-17.6 14.224-32 31.749-32s31.749 14.4 31.749 32v32h190.494v-32c0-17.6 14.224-32 31.749-32s31.749 14.4 31.749 32v32h38.797c16.097 0 29.622-12.16 31.527-28.16l48.544-416c2.222-19.2-12.509-35.84-31.527-35.84h-492.174c-19.018 0-33.749 16.64-31.527 35.84l48.544 416c1.905 16 15.43 28.16 31.527 28.16h38.797zM512 746.667c52.608 0 95.247-42.88 95.247-96v0h-190.494c0 53.12 42.639 96 95.247 96zM353.255 650.667h-38.797c-48.29 0-88.929-36.48-94.58-84.8l-48.544-416c-6.667-56.96 37.559-107.2 94.58-107.2h492.174c57.021 0 101.248 50.24 94.58 107.2l-48.544 416c-5.651 48.32-46.29 84.8-94.58 84.8h-38.797c0 88.32-71.086 160-158.745 160-87.691 0-158.745-71.68-158.745-160v0z" />
<glyph unicode="&#xe92e;" glyph-name="sort-down" d="M227.563 640c19.626 0 35.555-15.997 35.555-35.548v-269.81l45.973 46.213c13.902 13.864 36.373 13.864 50.275 0s13.902-36.615 0-50.478l-106.666-106.644c-13.902-13.864-36.373-13.864-50.275 0l-106.666 106.644c-13.902 13.864-13.902 36.615 0 50.478s36.373 13.864 50.275 0l45.973-46.213v269.81c0 19.551 15.929 35.548 35.555 35.548zM440.894 604.452c0 19.551 15.929 35.548 35.555 35.548h284.441c19.626 0 35.555-15.997 35.555-35.548s-15.929-35.548-35.555-35.548h-284.441c-19.626 0-35.555 15.997-35.555 35.548zM440.894 426.711c0 19.551 15.929 35.548 35.555 35.548h284.441c19.626 0 35.555-15.997 35.555-35.548s-15.929-35.548-35.555-35.548h-284.441c-19.626 0-35.555 15.997-35.555 35.548zM440.894 248.971c0 19.551 15.929 35.548 35.555 35.548h426.662c19.626 0 35.555-15.997 35.555-35.548s-15.929-35.548-35.555-35.548h-426.662c-19.626 0-35.555 15.997-35.555 35.548v0z" />
<glyph unicode="&#xe92f;" glyph-name="sort-up" d="M202.425 629.602c13.902 13.864 36.373 13.864 50.275 0l106.666-106.644c13.902-13.864 13.902-36.615 0-50.478s-36.373-13.864-50.275 0l-45.973 46.213v-269.81c0-19.551-15.929-35.548-35.555-35.548s-35.555 15.997-35.555 35.548v269.81l-45.973-46.213c-13.902-13.864-36.373-13.864-50.275 0s-13.902 36.615 0 50.478l106.666 106.644zM903.111 568.815h-426.662c-19.626 0-35.555 15.997-35.555 35.548s15.929 35.548 35.555 35.548h426.662c19.626 0 35.555-15.997 35.555-35.548s-15.929-35.548-35.555-35.548zM440.894 426.623c0 19.551 15.929 35.548 35.555 35.548h284.441c19.626 0 35.555-15.997 35.555-35.548s-15.929-35.548-35.555-35.548h-284.441c-19.626 0-35.555 15.997-35.555 35.548zM440.894 248.882c0 19.551 15.929 35.548 35.555 35.548h284.441c19.626 0 35.555-15.997 35.555-35.548s-15.929-35.548-35.555-35.548h-284.441c-19.626 0-35.555 15.997-35.555 35.548v0z" />
<glyph unicode="&#xe930;" glyph-name="store-light" d="M791.273 109.715c10.805 0 20.156 4.5 28.052 13.5s11.844 19.5 11.844 31.5v0 293.143c19.948 8.571 35.74 22.286 47.377 41.143s17.455 39.643 17.455 62.357c0 22.714-5.818 43.929-17.455 63.643v0l-81.039 133.714c-3.325 6-8.104 10.714-14.338 14.143s-12.675 5.143-19.325 5.143v0h-503.688c-6.649 0-13.091-1.714-19.325-5.143s-11.013-8.143-14.338-14.143v0l-81.039-133.714c-11.636-19.714-17.455-40.929-17.455-63.643s5.818-43.5 17.455-62.357c11.636-18.857 27.429-32.571 47.377-41.143v0-293.143c0-12 3.948-22.5 11.844-31.5s17.247-13.5 28.052-13.5v0h558.545zM236.468 480h-12.468c-10.805 1.714-20.364 6-28.675 12.857s-15.169 15.857-20.571 27c-5.403 11.143-7.688 23.357-6.857 36.643s4.571 25.5 11.221 36.643v0l81.039 133.714h503.688l81.039-133.714c6.649-10.286 10.39-22.286 11.221-36s-1.662-26.571-7.481-38.571v0 1.286c-4.987-11.143-11.636-20.143-19.948-27s-17.87-10.714-28.675-11.571c-4.156-0.857-7.896-1.286-11.221-1.286-24.935 0-45.714 9.857-62.338 29.571v0l-29.922 33.429-29.922-34.714c-16.623-18.857-37.403-28.286-62.338-28.286s-45.714 9.429-62.338 28.286v0l-29.922 34.714-29.922-34.714c-16.623-18.857-37.403-28.286-62.338-28.286s-45.714 9.429-62.338 28.286v0l-29.922 34.714-28.675-34.714c-17.455-18.857-38.234-28.286-62.338-28.286v0zM232.727 438.857h2.494c18.286 0 35.325 3.857 51.117 11.571s29.506 18 41.143 30.857c11.636-12.857 25.351-23.143 41.143-30.857s32.831-11.571 51.117-11.571c18.286 0 35.325 3.857 51.117 11.571s29.507 18 41.143 30.857c11.636-12.857 25.351-23.143 41.143-30.857s32.623-11.571 50.494-11.571c17.87 0 34.909 3.857 51.117 11.571s30.13 18 41.766 30.857c10.805-12.857 24.312-23.143 40.519-30.857s33.039-11.571 50.494-11.571v0h3.74v-82.286l-558.585-0.043 0.040 82.329zM791.273 150.857h-557.299c-0.831 0-1.247 1.286-1.247 3.857v0l-0.040 160.693 558.585 0.022v-163.286c-0.831-0.857-0.831-1.286 0-1.286v0z" />
<glyph unicode="&#xe931;" glyph-name="trash" d="M722.667 42.667c20 0 37 7 51 21s21 31 21 51v0 552h39c2 0 4 1 6 3s3 4 3 6v0 3c0 10-3.5 18.5-10.5 25.5s-15.5 10.5-25.5 10.5v0h-132l-51 67.5c-14 19-33 28.5-57 28.5v0h-120c-24 0-43-9.5-57-28.5v0l-51-67.5h-132c-10 0-18.5-3.5-25.5-10.5s-10.5-15.5-10.5-25.5v0-3c0-2 1-4 3-6s4-3 6-3v0h39v-552c0-20 7-37 21-51s31-21 51-21v0h432zM614.667 714.667h-216l28.5 39c5 6 11.5 9 19.5 9v0h120c8 0 14.5-3 19.5-9v0l28.5-39zM722.667 90.667h-432c-7 0-12.75 2.25-17.25 6.75s-6.75 10.25-6.75 17.25v0 552h480v-552c0-7-2.25-12.75-6.75-17.25s-10.25-6.75-17.25-6.75v0zM512.667 162.667c5 0 9.25 1.75 12.75 5.25s5.25 7.75 5.25 12.75v0 396c0 5-1.75 9.25-5.25 12.75s-7.75 5.25-12.75 5.25v0h-12c-5 0-9.25-1.75-12.75-5.25s-5.25-7.75-5.25-12.75v0-396c0-5 1.75-9.25 5.25-12.75s7.75-5.25 12.75-5.25v0h12zM392.667 162.667c5 0 9.25 1.75 12.75 5.25s5.25 7.75 5.25 12.75v0 396c0 5-1.75 9.25-5.25 12.75s-7.75 5.25-12.75 5.25v0h-12c-5 0-9.25-1.75-12.75-5.25s-5.25-7.75-5.25-12.75v0-396c0-5 1.75-9.25 5.25-12.75s7.75-5.25 12.75-5.25v0h12zM632.667 162.667c5 0 9.25 1.75 12.75 5.25s5.25 7.75 5.25 12.75v0 396c0 5-1.75 9.25-5.25 12.75s-7.75 5.25-12.75 5.25v0h-12c-5 0-9.25-1.75-12.75-5.25s-5.25-7.75-5.25-12.75v0-396c0-5 1.75-9.25 5.25-12.75s7.75-5.25 12.75-5.25v0h12z" />
<glyph unicode="&#xe932;" glyph-name="upload-file-light" d="M707.413 478.206v145.342c0 4.16-1.971 8.004-4.759 11.045l-167.099 171.111c-3.118 3.199-7.553 4.963-11.981 4.963h-264.93c-48.91 0-87.978-38.895-87.978-86.596v-488.525c0-47.701 39.068-85.957 87.978-85.957h209.123c39.555-64.025 111.453-106.922 193.356-106.922 124.42 0 226.025 98.602 226.025 220.090 0.168 106.125-77.968 194.801-179.735 215.449zM539.99 754.481l112.108-115.084h-72.716c-21.667 0-39.392 17.443-39.392 38.572v76.512zM258.644 181.605c-30.692 0-55.147 24.012-55.147 53.941v488.525c0 30.094 24.455 54.58 55.147 54.58h248.515v-100.682c0-38.895 32.338-70.588 72.223-70.588h95.2v-125.010c-4.921 0.158-8.863 0.639-13.129 0.639-57.286 0-109.975-21.451-149.698-55.066h-208.462c-9.031 0-16.415-7.201-16.415-16.002 0-8.807 7.385-16.008 16.415-16.008h177.932c-11.657-16.008-21.342-32.016-28.889-49.623h-149.043c-9.031 0-16.415-7.201-16.415-16.008 0-8.801 7.385-16.008 16.415-16.008h138.372c-4.104-16.008-6.237-33.773-6.237-51.539 0-28.811 5.744-57.305 16.085-81.316l-192.87 0.164zM661.292 74.519c-106.364 0-192.87 84.357-192.87 188.080s86.337 188.080 192.87 188.080c106.526 0 192.864-84.357 192.864-188.080s-86.5-188.080-192.864-188.080zM303.294 476.126h166.276c9.031 0 16.415 7.207 16.415 16.008 0 8.807-7.385 16.008-16.415 16.008h-166.276c-9.031 0-16.415-7.201-16.415-16.008 0-8.801 7.385-16.008 16.415-16.008zM672.942 380.729c-3.118 3.199-7.385 5.121-11.981 5.121s-8.863-1.922-11.981-5.121l-96.191-100.682c-6.237-6.404-5.744-16.646 0.823-22.57 6.567-6.082 17.233-5.602 23.47 0.797l67.957 70.91v-174.791c0-8.807 7.385-16.008 16.415-16.008 9.025 0 16.415 7.201 16.415 16.008v174.791l67.458-70.91c3.287-3.357 7.553-5.121 11.987-5.121 3.936 0 7.877 1.441 11.158 4.324 6.567 6.082 7.060 16.166 0.823 22.57l-96.354 100.682z" />
<glyph unicode="&#xe933;" glyph-name="brand-app-full" horiz-adv-x="2048" d="M560.564 117.189c0-28.837-15.982-44.209-45.96-44.209h-98.929c-26.975 0-40.953 11.518-51.946 36.523l-193.83 406.565c-13.017 26.891-33.985 68.23-40.972 98.992h-11.995c5.007-33.651 5.986-67.285 5.986-99.957v-442.126h-122.918v618.959c0 28.837 17.002 44.209 46.98 44.209h96.925c26.995 0 39.971-11.518 51.968-36.523l187.844-395.008c12.976-28.856 32.984-69.212 47.962-104.773h11.975c-2.984 36.504-4.985 72.082-4.985 107.643v428.659h121.898v-618.959zM925.924 72.98l30.861 64.255h188.247l30.346-64.255h74.064l-161.502 340.747h-74.064l-161.502-340.747h73.549zM1117.769 197.109h-133.726l66.864 145.061 66.864-145.061zM1369.075 72.98v100.276h101.838c176.417 0 175.902 240.955 0 240.955-56.576 0-113.153-0.486-169.729-0.486v-340.747h67.892zM1470.913 232.158h-101.838v120.721h101.838c86.407 0 86.922-120.721 0-120.721zM1743.304 72.98v100.276h101.838c176.417 0 175.902 240.955 0 240.955l-169.729-0.486v-340.747h67.892zM1845.144 232.158h-101.838v120.721h101.838c86.407 0 86.922-120.721 0-120.721zM1904.743 717.296l39.105-116.562c2.556-7.604 4.388-14.869 5.844-22.481h5.121c2.548 7.611 5.111 15.916 7.302 22.481l38.38 116.562h47.505l-66.514-174.667c-11.683-31.477-37.64-67.788-90.266-65.022l-3.648 26.625c17.662 4.662 30.128 11.134 39.156 19.969 2.631 2.582 1.427 8.61-0.815 15.002-2.623 7.476-68.315 178.090-68.315 178.090h47.14zM1198.536 712.912c58.097 0 81.492-20.401 81.492-58.798 0-30.43-14.62-48.421-47.872-48.421h-73.097c3.656-30.786 17.191-37.009 47.88-37.009 17.176 0 42.759 1.726 64.33 4.151l4.021-26.98c-19.014-8.644-51.175-11.417-73.83-11.417-65.041 0-89.541 24.906-89.541 89.243 0 67.094 25.95 89.229 86.618 89.229zM1379.801 756.841v-48.767h52.626v-30.438h-52.626v-86.124c0-14.877 5.479-19.715 21.562-19.715h24.485l4.753-31.124c-12.423-3.813-35.077-5.885-46.049-5.885-31.422 0-48.605 17.981-48.605 49.461v93.387h-32.527v28.707l32.162 1.734v48.767h44.217zM1772.685 712.917c44.217 0 67.246-13.837 67.246-59.144v-115.174h-35.092l-4.746 25.941c-12.788-13.496-36.182-29.753-68.344-29.753-32.887 0-56.647 17.295-56.647 49.12v17.287c0 26.987 19.374 42.541 53.001 42.541h67.239v10.377c-0.365 19.376-7.316 24.214-32.88 24.214-16.458 0-46.789-1.381-74.928-3.46l-4.388 29.746c25.585 4.492 65.781 8.305 89.541 8.305zM924.309 777.243c9.874 0 14.62-4.144 19.006-13.143l68.702-142.147c4.746-10.384 12.062-24.906 17.541-37.703h4.381c-1.090 13.136-1.823 25.941-1.823 38.736v154.258h44.584v-222.74c0-10.377-5.844-15.909-16.809-15.909h-36.182c-9.867 0-14.978 4.144-18.999 13.143l-70.892 146.308c-4.761 9.676-12.43 24.553-14.986 35.624h-4.388c1.83-12.111 2.191-24.214 2.191-35.97v-159.103h-44.957v222.74c0 10.377 6.219 15.909 17.183 15.909h35.45zM1565.944 780.359c65.414 0 86.61-16.603 86.61-76.787 0-60.522-21.197-76.78-80.759-76.78-18.281 0-36.182 1.032-51.535 2.766v-90.97h-45.682v238.656c28.873 2.766 48.245 3.112 91.364 3.112zM1795.34 615.030h-57.014c-14.613-0.687-18.999-7.611-18.999-19.021v-6.572c0-14.529 7.316-20.754 23.387-20.754 13.888 0 34.367 5.878 52.626 20.060v26.286zM1200.361 679.706c-30.696 0-40.921-8.985-42.026-44.613h61.393c14.253 0 16.076 10.723 16.076 19.715 0 17.981-8.034 24.901-35.442 24.901zM1564.844 744.736h-44.584v-82.664h44.584c31.804 0.346 41.661 8.644 41.661 41.501 0 32.865-9.857 41.163-41.661 41.163z" />
<glyph unicode="&#xe934;" glyph-name="brand-app-symbol" d="M786.773 123.506c0-31.638-16.348-48.502-47.015-48.502h-101.2c-27.594 0-41.893 12.638-53.14 40.070l-198.282 446.054c-13.316 29.503-34.765 74.856-41.914 108.607h-12.271c5.122-36.921 6.125-73.821 6.125-109.664v-485.067h-125.742v679.077c0 31.638 17.393 48.502 48.060 48.502h99.152c27.615 0 40.89-12.638 53.161-40.070l192.157-433.373c13.275-31.659 33.74-75.935 49.064-114.948h12.25c-3.052 40.048-5.101 79.083-5.101 118.097v470.294h124.697v-679.077z" />
<glyph unicode="&#xe935;" glyph-name="brand-app-text" horiz-adv-x="1600" d="M109.362-85.333l40.653 93.015h247.987l39.976-93.015h97.568l-212.754 493.264h-97.568l-212.754-493.264h96.891zM362.091 94.356h-176.165l88.083 209.99 88.083-209.99zM693.148-85.333v145.16h134.157c232.403 0 231.726 348.808 0 348.808-74.531 0-149.064-0.704-223.595-0.704v-493.264h89.438zM827.304 145.091h-134.157v174.756h134.157c113.83 0 114.507-174.756 0-174.756zM1186.14-85.333v145.16h134.157c232.403 0 231.726 348.808 0 348.808l-223.595-0.704v-493.264h89.438zM1320.298 145.091h-134.157v174.756h134.157c113.83 0 114.507-174.756 0-174.756zM1398.81 847.374l51.515-168.734c3.368-11.009 5.78-21.525 7.7-32.542h6.744c3.357 11.019 6.734 23.040 9.619 32.542l50.56 168.734h62.583l-87.621-252.845c-15.389-45.568-49.585-98.13-118.912-94.126l-4.806 38.544c23.267 6.748 39.689 16.117 51.584 28.907 3.466 3.737 1.88 12.463-1.073 21.718-3.457 10.824-89.994 257.802-89.994 257.802h62.1zM468.489 841.028c76.534 0 107.353-29.532 107.353-85.114 0-44.052-19.26-70.093-63.065-70.093h-96.295c4.815-44.565 22.646-53.576 63.074-53.576 22.626 0 56.33 2.499 84.745 6.010l5.297-39.055c-25.049-12.513-67.416-16.527-97.26-16.527-85.681 0-117.957 36.055-117.957 129.188 0 97.126 34.186 129.168 114.107 129.168zM707.276 904.623v-70.594h69.327v-44.062h-69.327v-124.672c0-21.534 7.217-28.539 28.406-28.539h32.256l6.262-45.056c-16.365-5.519-46.208-8.52-60.662-8.52-41.393 0-64.029 26.030-64.029 71.598v135.188h-42.85v41.554l42.368 2.508v70.594h58.25zM1224.845 841.037c58.25 0 88.585-20.029 88.585-85.617v-166.728h-46.228l-6.252 37.55c-16.847-19.537-47.665-43.070-90.033-43.070-43.323 0-74.624 25.036-74.624 71.107v25.026c0 39.065 25.521 61.584 69.819 61.584h88.575v15.022c-0.482 28.047-9.639 35.050-43.314 35.050-21.682 0-61.636-1.997-98.707-5.007l-5.78 43.059c33.703 6.502 86.656 12.022 117.957 12.022zM107.235 934.157c13.006 0 19.26-6.002 25.039-19.026l90.506-205.772c6.252-15.032 15.891-36.055 23.109-54.579h5.77c-1.437 19.016-2.402 37.55-2.402 56.074v223.304h58.732v-322.437c0-15.022-7.7-23.031-22.144-23.031h-47.665c-12.996 0-19.732 6.002-25.030 19.026l-93.39 211.793c-6.272 14.009-16.374 35.543-19.742 51.568h-5.78c2.413-17.531 2.885-35.050 2.885-52.071v-230.318h-59.224v322.437c0 15.022 8.192 23.031 22.637 23.031h46.7zM952.494 938.667c86.174 0 114.096-24.033 114.096-111.155 0-87.613-27.924-111.145-106.388-111.145-24.083 0-47.665 1.495-67.889 4.004v-131.686h-60.18v345.476c38.035 4.004 63.557 4.505 120.359 4.505zM1254.69 699.336h-75.106c-19.249-0.993-25.030-11.019-25.030-27.535v-9.513c0-21.033 9.639-30.043 30.809-30.043 18.293 0 45.273 8.51 69.327 29.041v38.052zM470.89 792.961c-40.439 0-53.907-13.005-55.364-64.583h80.876c18.778 0 21.179 15.523 21.179 28.539 0 26.030-10.585 36.045-46.691 36.045zM951.045 887.097h-58.732v-119.665h58.732c41.895 0.502 54.882 12.513 54.882 60.078 0 47.575-12.987 59.587-54.882 59.587z" />
<glyph unicode="&#xe936;" glyph-name="brand-link-full" horiz-adv-x="2048" d="M1324.086 139.745v47.956h-144.397v227.201h-52.946v-275.157h197.343zM1435.032 139.745v275.157h-52.544v-275.157h52.544zM1710.029 139.352v0.393h32.89v275.55h-52.946v-170.991l-137.578 170.598h-42.918v-275.157h52.946v185.534l147.606-185.928zM1865.097 139.745v121.855l117.523-121.855h65.38v3.145l-135.172 138.758 124.743 131.682v1.572h-65.781l-106.693-116.352v116.352h-52.946v-275.157h52.946zM871.374 776.376l5.184-0.679c11.618-3.098 19.404-16.259 13.057-28.609v0l-306.435-596.294-3.179-4.532c-6.187-6.645-16.425-8.632-24.928-4.155v0l-143.646 75.657-88.792-137.878-2.5-2.271c-3.836-1.914-9.134 0.481-9.281 5.42v0l-6.139 192.209c-1.13 3.173 5.222 7.257 19.002 19.667v0l300.981 250.789c-19.924-8.224-38.933-17.474-55.207-26.832v0l-330.447-216.165-4.591-2.177c-4.792-1.589-10.072-1.406-14.821 0.614v0l-207.296 88.659-5.437 3.354c-10.853 9.283-8.871 27.742 5.758 33.734v0l850.67 347.864c2.717 1.116 5.434 1.626 8.047 1.626v0zM1933.125 667.178l30.496-94.125c1.993-6.141 3.421-12.007 4.558-18.153h3.993c1.988 6.146 3.987 12.852 5.695 18.153l29.93 94.125h37.048l-51.87-141.045c-9.111-25.42-29.354-54.74-70.394-52.506l-2.844 21.501c13.773 3.764 23.495 8.991 30.537 16.126 2.052 2.085 1.113 6.951-0.635 12.116-2.046 6.038-53.275 143.809-53.275 143.809h36.762zM1390.816 663.638c50.958 0 71.478-16.518 71.478-47.607 0-24.64-12.823-39.205-41.99-39.205h-64.116c3.205-24.926 15.078-29.966 41.997-29.966 15.065 0 37.506 1.398 56.426 3.362l3.527-21.844c-16.678-6.999-44.887-9.244-64.758-9.244-57.049 0-78.539 20.166-78.539 72.258 0 54.325 22.762 72.247 75.976 72.247zM1841.338 663.644c39.556 0 60.157-11.224 60.157-47.979v-93.433h-31.392l-4.246 21.043c-11.44-10.949-32.368-24.136-61.14-24.136-29.419 0-50.675 14.031-50.675 39.847v14.025c0 21.892 17.331 34.511 47.413 34.511h60.15v8.418c-0.327 15.718-6.546 19.643-29.413 19.643-14.724 0-41.856-1.119-67.030-2.806l-3.925 24.13c22.887 3.644 58.846 6.737 80.102 6.737zM1523.748 699.113v-39.38h41.041v-24.579h-41.041v-69.546c0-12.013 4.272-15.92 16.816-15.92h19.095l3.707-25.134c-9.688-3.079-27.354-4.753-35.911-4.753-24.504 0-37.904 14.52-37.904 39.94v75.412h-25.367v23.18l25.081 1.399v39.38h34.483zM1168.535 715.588c7.7 0 11.401-3.347 14.822-10.613l53.578-114.786c3.702-8.385 9.408-20.113 13.68-30.446h3.416c-0.851 10.608-1.422 20.947-1.422 31.28v124.565h34.769v-179.865c0-8.38-4.558-12.847-13.109-12.847h-28.217c-7.694 0-11.681 3.347-14.817 10.613l-55.286 118.145c-3.713 7.814-9.693 19.827-11.687 28.767h-3.421c1.428-9.779 1.708-19.553 1.708-29.046v-128.478h-35.060v179.865c0 8.38 4.85 12.847 13.401 12.847h27.646zM1673.358 718.104c54.196 0 71.758-13.406 71.758-62.006 0-48.873-17.561-62-66.909-62-15.147 0-29.978 0.834-42.697 2.233v-73.459h-37.848v192.717c23.922 2.233 39.972 2.513 75.696 2.513zM1861.604 584.235h-51.003c-13.072-0.557-16.997-6.175-16.997-15.431v-5.331c0-11.787 6.546-16.837 20.921-16.837 12.423 0 30.744 4.768 47.078 16.274v21.324zM1392.416 636.754c-26.925 0-35.893-7.274-36.863-36.123h53.85c12.502 0 14.102 8.683 14.102 15.963 0 14.559-7.047 20.161-31.088 20.161zM1672.448 689.338h-36.938v-66.752h36.938c26.349 0.28 34.517 6.98 34.517 33.513 0 26.539-8.168 33.239-34.517 33.239z" />
<glyph unicode="&#xe937;" glyph-name="brand-link-symbol" d="M869.261 717.256l2.951-0.259c10.566-1.872 18.038-13.559 12.431-24.493v0l-258.407-503.935-1.925-2.958c-5.106-6.306-14.249-8.356-21.777-4.383v0l-121.065 63.922-74.942-116.506-1.436-1.516c-3.247-2.298-8.366-0.294-8.499 4.178v0l-5.177 162.438c-0.887 2.725 4.475 6.198 16.024 16.621v0l253.766 211.927c-16.786-6.946-32.8-14.757-46.513-22.659v0l-278.656-182.683-3.069-1.551c-4.247-1.645-9.029-1.591-13.3 0.23v0l-174.806 74.927-3.204 1.768c-10.668 7.402-9.449 24.269 3.475 29.575v0l717.343 293.984c2.291 0.943 4.582 1.374 6.785 1.374v0z" />
<glyph unicode="&#xe938;" glyph-name="brand-link-text" horiz-adv-x="1600" d="M346.876-84.638v84.85h-248.513v401.993h-91.121v-486.844h339.634zM537.818-84.638v486.844h-90.432v-486.844h90.432zM1011.097-85.333v0.695h56.606v487.54h-91.121v-302.538l-236.778 301.842h-73.863v-486.844h91.121v328.271l254.035-328.967zM1277.974-84.638v215.602l202.262-215.602h112.52v5.565l-232.636 245.507 214.688 232.99v2.782h-113.211l-183.623-205.865v205.865h-91.121v-486.844h91.121zM1395.052 848.562l52.484-166.538c3.43-10.864 5.888-21.245 7.845-32.118h6.872c3.421 10.876 6.861 22.739 9.801 32.118l51.511 166.538h63.76l-89.271-249.554c-15.679-44.975-50.518-96.853-121.151-92.9l-4.896 38.042c23.703 6.66 40.437 15.908 52.555 28.532 3.532 3.689 1.916 12.3-1.094 21.436-3.522 10.683-91.688 254.446-91.688 254.446h63.269zM447.22 842.299c77.976 0 109.374-29.148 109.374-84.007 0-43.479-19.621-69.181-64.252-69.181h-98.108c4.905-43.984 23.072-52.879 64.262-52.879 23.052 0 57.389 2.466 86.341 5.933l5.397-38.547c-25.52-12.351-68.686-16.311-99.090-16.311-87.293 0-120.178 35.586-120.178 127.506 0 95.862 34.829 127.486 116.254 127.486zM690.503 905.067v-69.676h70.632v-43.489h-70.632v-123.050c0-21.254 7.353-28.167 28.941-28.167h32.863l6.381-44.47c-16.673-5.448-47.077-8.408-61.804-8.408-42.171 0-65.234 25.69-65.234 70.666v133.428h-43.656v41.014l43.165 2.475v69.676h59.347zM1217.815 842.309c59.347 0 90.253-19.768 90.253-84.502v-164.558h-47.098l-6.37 37.061c-17.164-19.283-48.562-42.509-91.727-42.509-44.139 0-76.029 24.711-76.029 70.18v24.7c0 38.557 26.003 60.782 71.133 60.782h90.243v14.826c-0.492 27.681-9.82 34.595-44.128 34.595-22.089 0-62.796-1.971-100.565-4.942l-5.888 42.499c34.338 6.418 88.287 11.865 120.178 11.865zM79.167 934.216c13.252 0 19.621-5.923 25.51-18.778l92.208-203.095c6.37-14.838 16.191-35.586 23.543-53.869h5.879c-1.465 18.768-2.448 37.061-2.448 55.344v220.398h59.838v-318.241c0-14.826-7.845-22.73-22.561-22.73h-48.562c-13.241 0-20.103 5.923-25.501 18.778l-95.148 209.037c-6.389 13.826-16.682 35.080-20.113 50.897h-5.888c2.458-17.304 2.94-34.595 2.94-51.393v-227.32h-60.34v318.241c0 14.826 8.347 22.73 23.063 22.73h47.578zM940.335 938.667c87.795 0 116.246-23.72 116.246-109.709 0-86.473-28.448-109.697-108.391-109.697-24.537 0-48.562 1.476-69.167 3.951v-129.972h-61.312v340.98c38.751 3.951 64.753 4.447 122.624 4.447zM1248.22 702.453h-76.52c-19.611-0.981-25.501-10.876-25.501-27.177v-9.389c0-20.76 9.82-29.652 31.388-29.652 18.638 0 46.126 8.398 70.632 28.662v37.558zM449.668 794.859c-41.199 0-54.922-12.836-56.407-63.742h82.398c19.13 0 21.578 15.321 21.578 28.167 0 25.69-10.784 35.575-47.57 35.575zM938.86 887.77h-59.838v-118.107h59.838c42.684 0.495 55.916 12.351 55.916 59.296 0 46.956-13.232 58.811-55.916 58.811z" />
<glyph unicode="&#xe939;" glyph-name="brand-maker-full" horiz-adv-x="2048" d="M341.228 255.695c34.854 0 63.103-30.274 63.103-67.611s-28.249-67.611-63.103-67.611c-34.849 0-63.098 30.274-63.098 67.611s28.249 67.611 63.098 67.611zM521.987 255.695c34.854 0 63.103-30.274 63.103-67.611s-28.249-67.611-63.103-67.611c-34.849 0-63.098 30.274-63.098 67.611s28.249 67.611 63.098 67.611zM110.049 725.521l4.254-0.724c4.045-1.415 7.336-4.805 8.737-9.296v0l16.744-53.539 2.124-4.369c2.708-3.907 7.031-6.33 11.747-6.33v0h491.049l7.003-0.803c17.948-4.199 29.636-24.193 24.021-44.027v0l-16.634-67.948-23.337-95.382-13.032 13.157c-4.751 4.49-9.571 8.728-14.439 12.727l13.181-11.544 14.29-14.34-33.269-135.956c-4.144-14.632-16.744-24.648-31.024-24.648v0h-318.89c-14.275 0-26.871 10.015-31.019 24.648v0l-29.64 117.242c-5.836 23.067 7.635 46.648 29.469 51.577v0l192.003 43.356c8.872 2.009 7.511 16.003-1.56 16.003 0 0 3.069 0.214 8.615 0.214l-5.519-0.076c-2.022-0.062-3.096-0.138-3.096-0.138v0h-359.2l-4.285 0.74c-5.385 1.92-9.268 7.361-9.268 13.774v0l-21.448 86.902 0.005 0.058-17.267 70.294-0.363 5.492c0.794 7.101 6.427 12.933 13.615 12.933v0h96.435zM1587.201 681.699l28.022-94.561c1.831-6.169 3.144-12.062 4.188-18.238h3.669c1.826 6.175 3.664 12.911 5.233 18.238l27.503 94.561h34.043l-47.663-141.696c-8.372-25.536-26.973-54.993-64.685-52.749l-2.613 21.6c12.656 3.782 21.59 9.032 28.060 16.2 1.885 2.095 1.023 6.984-0.583 12.172-1.88 6.066-48.953 144.474-48.953 144.474h33.78zM1088.878 678.142c46.826 0 65.681-16.594 65.681-47.827 0-24.754-11.784-39.386-38.584-39.386h-58.915c2.945-25.041 13.856-30.105 38.59-30.105 13.843 0 34.464 1.404 51.849 3.378l3.241-21.945c-15.325-7.031-41.247-9.287-59.506-9.287-52.421 0-72.168 20.259-72.168 72.591 0 54.576 20.915 72.58 69.814 72.58zM1502.858 678.148c36.348 0 55.278-11.276 55.278-48.2v-93.864h-28.846l-3.901 21.14c-10.512-11-29.743-24.248-56.181-24.248-27.034 0-46.565 14.095-46.565 40.032v14.090c0 21.993 15.925 34.67 43.567 34.67h55.271v8.457c-0.301 15.79-6.015 19.733-27.028 19.733-13.529 0-38.461-1.125-61.594-2.819l-3.607 24.241c21.031 3.661 54.073 6.768 73.605 6.768zM1211.028 713.782v-39.562h37.712v-24.693h-37.712v-69.867c0-12.069 3.925-15.993 15.452-15.993h17.546l3.406-25.25c-8.902-3.093-25.136-4.775-32.999-4.775-22.517 0-34.83 14.588-34.83 40.125v75.76h-23.309v23.288l23.046 1.406v39.562h31.686zM884.625 730.332c7.075 0 10.477-3.363 13.62-10.662l49.232-115.317c3.401-8.425 8.644-20.205 12.571-30.586h3.138c-0.782 10.657-1.307 21.043-1.307 31.425v125.141h31.949v-180.696c0-8.418-4.188-12.906-12.046-12.906h-25.928c-7.070 0-10.733 3.363-13.615 10.662l-50.802 118.69c-3.412 7.85-8.907 19.918-10.738 28.9h-3.144c1.312-9.825 1.569-19.643 1.569-29.181v-129.072h-32.216v180.696c0 8.418 4.456 12.906 12.313 12.906h25.403zM1348.504 732.86c49.801 0 65.938-13.468 65.938-62.292 0-49.099-16.137-62.286-61.482-62.286-13.918 0-27.546 0.838-39.233 2.244v-73.798h-34.778v193.608c21.981 2.244 36.73 2.526 69.556 2.526zM1521.481 598.373h-46.867c-12.012-0.559-15.618-6.203-15.618-15.502v-5.355c0-11.842 6.015-16.914 19.225-16.914 11.416 0 28.25 4.79 43.26 16.349v21.423zM1090.347 651.134c-24.742 0-32.982-7.308-33.874-36.29h49.482c11.488 0 12.958 8.723 12.958 16.036 0 14.627-6.476 20.254-28.566 20.254zM1347.666 703.96h-33.942v-67.061h33.942c24.212 0.282 31.717 7.013 31.717 33.668 0 26.661-7.506 33.393-31.717 33.393zM890.507 217.743v176.031l73.656-105.48h8.588l75.308 105.135v-175.686h43.6v242.087h-49.875l-72.335-104.097-72.335 104.097h-50.206v-242.087h43.6zM1177.199 217.743l19.726 45.65h120.333l19.397-45.65h47.344l-103.236 242.087h-47.344l-103.236-242.087h47.015zM1300.149 303.184h-86.116l43.058 104.43 43.058-104.43zM1457.212 217.743v107.21l97.116-107.21h54.027v2.767l-111.699 122.081 103.081 115.856v1.384h-54.358l-88.167-102.368v102.368h-43.752v-242.087h43.752zM1812.313 217.743v44.959h-129.174v54.643h124.573v42.538h-124.573v55.681h129.174v44.267h-172.232v-242.087h172.232zM1887.464 217.743v80.81h41.779l67.109-80.81h51.648v3.108l-69.741 82.537c43.753 9.325 58.226 42.822 58.226 75.976 0 41.786-28.621 79.775-82.899 80.121-36.516 0-73.030 0.345-109.546 0.345v-242.087h43.423zM1954.639 341.16h-65.275v75.949h65.275c26.954 0 38.971-18.987 38.971-37.975s-11.691-37.975-38.971-37.975z" />
<glyph unicode="&#xe93a;" glyph-name="brand-maker-symbol" d="M495.249 220.162c35.729 0 64.688-28.965 64.688-64.688s-28.959-64.688-64.688-64.688c-35.723 0-64.682 28.965-64.682 64.688s28.959 64.688 64.682 64.688zM717.603 220.162c35.729 0 64.688-28.965 64.688-64.688s-28.959-64.688-64.688-64.688c-35.723 0-64.682 28.965-64.682 64.688s28.959 64.688 64.682 64.688zM223.807 759.574l3.541-0.375c5.737-1.231 10.523-5.4 12.439-11.129v0l20.597-61.469 1.311-2.991c3.123-5.659 9.121-9.291 15.752-9.291v0l608.973-0.297c24.131-2.934 40.523-27.156 33.238-51.173v0l-20.462-78.011-28.707-109.509-7.776 7.577c-3.031 2.859-6.089 5.636-9.169 8.333l7.962-7.2 8.983-8.711-40.925-156.093c-5.097-16.799-20.597-28.298-38.163-28.298v0h-392.274c-17.56 0-33.055 11.498-38.157 28.298v0l-36.46 134.606c-7.18 26.484 9.392 53.558 36.25 59.216v0l236.187 49.778c10.913 2.305 9.239 18.373-1.919 18.373v0l-445.22 0.339c-7.598 1.554-13.31 8.273-13.31 16.326v0l-26.384 99.773 0.012 0.135-21.247 80.639-0.526 3.19c-0.646 9.488 6.88 17.963 16.828 17.963v0h118.626z" />
<glyph unicode="&#xe93b;" glyph-name="brand-maker-text" horiz-adv-x="2048" d="M1129.177 794.059l42.437-147.35c2.774-9.614 4.761-18.797 6.344-28.419h5.556c2.766 9.623 5.549 20.12 7.925 28.419l41.649 147.35h51.554l-72.179-220.802c-12.677-39.794-40.847-85.694-97.955-82.197l-3.959 33.659c19.167 5.892 32.696 14.075 42.492 25.244 2.856 3.264 1.55 10.883-0.884 18.966-2.847 9.452-74.133 225.131-74.133 225.131h51.156zM362.813 788.518c63.047 0 88.433-25.79 88.433-74.328 0-38.469-15.866-61.209-51.951-61.209h-79.325c3.966-38.918 18.656-46.787 51.959-46.787 18.639 0 46.403 2.183 69.81 5.249l4.364-34.106c-20.634-10.928-55.535-14.433-80.12-14.433-70.581 0-97.169 31.487-97.169 112.815 0 84.818 28.161 112.799 93.998 112.799zM559.517 844.053v-61.649h57.11v-38.478h-57.11v-108.872c0-18.806 5.946-24.923 23.4-24.923h26.571l5.159-39.347c-13.481-4.821-38.064-7.44-49.971-7.44-34.098 0-52.746 22.731-52.746 62.525v118.056h-35.298v36.288l34.902 2.19v61.649h47.984zM985.873 788.526c47.984 0 72.974-17.492 72.974-74.766v-145.598h-38.081l-5.151 32.792c-13.878-17.061-39.266-37.611-74.166-37.611-35.688 0-61.473 21.864-61.473 62.096v21.855c0 34.115 21.023 53.778 57.515 53.778h72.965v13.118c-0.398 24.492-7.941 30.609-35.681 30.609-17.861 0-50.774-1.745-81.312-4.373l-4.761 37.602c27.764 5.678 71.384 10.499 97.169 10.499zM65.224 869.844c10.715 0 15.866-5.241 20.627-16.616l74.555-179.694c5.151-13.127 13.091-31.487 19.037-47.663h4.754c-1.185 16.605-1.98 32.792-1.98 48.968v195.005h48.381v-281.574c0-13.118-6.344-20.112-18.242-20.112h-39.266c-10.707 0-16.254 5.241-20.618 16.616l-76.932 184.953c-5.168 12.233-13.488 31.038-16.263 45.033h-4.761c1.988-15.309 2.378-30.609 2.378-45.473v-201.129h-48.788v281.574c0 13.118 6.749 20.112 18.647 20.112h38.471zM761.518 873.783c70.986 0 93.989-20.988 93.989-97.068 0-76.511-23.003-97.059-87.638-97.059-19.839 0-39.266 1.305-55.925 3.497v-114.998h-49.574v301.694c31.332 3.497 52.356 3.935 99.147 3.935zM1010.456 664.783h-61.871c-15.857-0.869-20.618-9.623-20.618-24.047v-8.307c0-18.368 7.941-26.237 25.38-26.237 15.071 0 37.295 7.431 57.11 25.361v33.23zM364.791 746.542c-33.312 0-44.408-11.357-45.608-56.399h66.623c15.468 0 17.447 13.557 17.447 24.923 0 22.731-8.72 31.476-38.462 31.476zM760.327 828.75h-48.381v-104.499h48.381c34.512 0.438 45.21 10.928 45.21 52.464 0 41.546-10.698 52.035-45.21 52.035zM74.34-20.446v308.859l125.594-185.073h14.643l128.409 184.466v-308.253h74.343v424.757h-85.043l-123.341-182.646-123.341 182.646h-85.605v-424.757h74.342zM563.183-20.446l33.636 80.097h205.181l33.077-80.097h80.727l-176.030 424.757h-80.727l-176.030-424.757h80.166zM772.829 129.469h-146.838l73.419 183.23 73.419-183.23zM1040.638-20.446v188.106l165.594-188.106h92.121v4.856l-190.461 214.199 175.766 203.277v2.427h-92.688l-150.335-179.612v179.612h-74.601v-424.757h74.601zM1646.127-20.446v78.884h-220.256v95.874h212.411v74.636h-212.411v97.694h220.256v77.67h-293.675v-424.757h293.675zM1774.268-20.446v141.788h71.238l114.429-141.788h88.065v5.454l-118.917 144.818c74.604 16.361 99.284 75.135 99.284 133.304 0 73.317-48.8 139.97-141.353 140.576-62.264 0-124.526 0.606-186.788 0.606v-424.757h74.042zM1888.813 196.097h-111.302v133.257h111.302c45.96 0 66.45-33.314 66.45-66.629s-19.935-66.629-66.45-66.629z" />
<glyph unicode="&#xe93c;" glyph-name="brand-manager-full" d="M697.197 839.368c24.599-20.992 27.601-58.041 6.705-82.753l-327.348-387.063c-11.064-13.182-27.376-20.759-44.54-20.689-22.776-0.006-43.48 13.284-53.044 34.050s-6.245 45.221 8.503 62.657l327.348 387.063c20.896 24.712 57.777 27.727 82.376 6.736zM832.331 659.282c24.604-20.514 28.095-57.304 7.799-82.172l-163.306-199.697c-10.976-13.342-27.263-21.048-44.431-21.022-13.393-0.071-26.376 4.67-36.632 13.378-11.82 9.796-19.289 23.949-20.752 39.328s3.198 30.712 12.953 42.605l163.070 199.697c20.296 24.868 56.695 28.397 81.299 7.883zM396.745 852.548c21.233-3.466 38.944-18.028 46.352-38.109s3.364-42.572-10.582-58.86l-113.715-136.612c-11.332-13.641-28.178-21.568-45.975-21.634-23.065 0.162-43.989 13.471-53.8 34.221s-6.768 45.256 7.825 63.011l113.715 136.612c13.48 16.671 34.947 24.837 56.18 21.371zM610.797 81.457c8.947 0 17.892-3.365 24.746-10.002l-7.805-7.853c-4.473 4.206-11.136 6.544-16.941 6.544-14.277 0-22.939-10.656-22.939-24.118 0-10.75 6.378-21.874 22.939-21.874 5.233 0 9.802 1.122 15.038 5.234v11.592h-17.039v11.030h28.555v-27.576c-6.567-7.386-14.848-11.779-26.554-11.779-25.034 0-35.219 16.173-35.219 33.373 0 18.416 11.708 35.429 35.219 35.429zM270.468 79.495l20.846-28.138 20.844 28.138h14.372v-65.438h-12.564v47.49l-21.701-28.419h-2.476l-21.224 28.514v-47.584h-12.565v65.438h14.468zM482.224 79.682v-65.531h-7.805v-0.094l-35.027 44.218v-44.123h-12.564v65.437h10.183l32.649-40.571v40.666h12.564zM704.921 79.587v-11.965h-37.407v-15.051h36.075v-11.499h-36.075v-14.768h37.407v-12.154h-49.875v65.437h49.875zM382.676 79.588l29.887-65.438h-13.706l-5.617 12.339h-34.835l-5.712-12.339h-13.611l29.887 65.438h13.706zM538.087 79.588l29.887-65.438h-13.706l-5.617 12.339h-34.835l-5.712-12.339h-13.611l29.887 65.438h13.706zM722.329 79.682c10.565 0 21.131-0.093 31.696-0.093 15.706-0.094 23.987-10.378 23.987-21.688 0-8.976-4.188-18.043-16.848-20.568l20.18-22.342v-0.84h-14.944l-19.417 21.875h-12.088v-21.875h-12.565v65.531zM375.824 65.846l-12.375-27.858h24.748l-12.373 27.858zM531.235 65.846l-12.375-27.858h24.748l-12.373 27.858zM754.024 68.090h-19.13v-20.941h19.13c7.996 0 11.423 5.237 11.423 10.47 0 5.235-3.522 10.47-11.423 10.47zM725.268 216.025l17.511-54.168c1.145-3.536 1.963-6.91 2.62-10.446h2.291c1.145 3.536 2.292 7.394 3.273 10.446l17.185 54.168h21.276l-29.786-81.171c-5.238-14.627-16.858-31.504-40.423-30.219l-1.637 12.378c7.913 2.163 13.495 5.17 17.537 9.277 1.181 1.202 0.642 4.002-0.362 6.973-1.176 3.475-30.596 82.763-30.596 82.763h21.111zM409.007 213.99c26.021 0 36.495-9.483 36.495-27.328 0-14.142-6.546-22.501-21.439-22.501h-32.733c1.636-14.306 7.694-17.198 21.44-17.198 7.691 0 19.148 0.803 28.804 1.928l1.802-12.538c-8.512-4.019-22.915-5.304-33.059-5.304-29.131 0-40.098 11.573-40.098 41.47 0 31.182 11.62 41.47 38.789 41.47zM490.185 234.405v-22.666h23.568v-14.142h-23.568v-40.026c0-6.912 2.455-9.162 9.656-9.162h10.964l2.129-14.466c-5.563-1.77-15.713-2.734-20.623-2.734-14.074 0-21.768 8.358-21.768 22.986v43.402h-14.562v13.341l14.403 0.802v22.666h19.802zM666.128 213.989c19.802 0 30.114-6.427 30.114-27.485v-53.526h-15.713l-2.126 12.058c-5.728-6.27-16.203-13.826-30.606-13.826-14.729 0-25.367 8.037-25.367 22.826v8.035c0 12.539 8.673 19.771 23.731 19.771h30.112v4.822c-0.161 9.002-3.273 11.251-14.729 11.251-7.363 0-20.948-0.643-33.551-1.608l-1.961 13.824c11.456 2.091 29.457 3.858 40.095 3.858zM286.203 243.886c4.418 0 6.546-1.928 8.512-6.107l30.765-66.062c2.128-4.824 5.402-11.574 7.857-17.522h1.963c-0.49 6.109-0.819 12.056-0.819 18.003v71.688h19.966v-103.515c0-4.821-2.616-7.392-7.526-7.392h-16.201c-4.421 0-6.712 1.928-8.512 6.107l-31.749 67.99c-2.129 4.502-5.563 11.414-6.71 16.557h-1.965c0.819-5.626 0.982-11.251 0.982-16.715v-73.939h-20.131v103.514c0 4.822 2.784 7.394 7.693 7.394h15.875zM573.546 245.333c29.294 0 38.784-7.714 38.784-35.683 0-28.128-9.489-35.683-36.167-35.683-8.183 0-16.201 0.482-23.074 1.286v-42.274h-20.458v110.909c12.928 1.285 21.605 1.445 40.916 1.445zM676.274 168.501h-25.529c-6.547-0.322-8.51-3.536-8.51-8.842v-3.053c0-6.752 3.274-9.643 10.475-9.643 6.217 0 15.384 2.731 23.565 9.322v12.216zM409.827 198.558c-13.75 0-18.332-4.178-18.823-20.734h27.496c6.383 0 7.201 4.982 7.201 9.163 0 8.355-3.602 11.571-15.874 11.571zM573.054 228.778h-19.966v-38.416h19.966c14.238 0.162 18.658 4.019 18.658 19.288 0 15.272-4.42 19.128-18.658 19.128z" />
<glyph unicode="&#xe93d;" glyph-name="brand-manager-symbol" d="M730.485 749.38c32.799-27.989 36.801-77.389 8.94-110.337l-436.463-516.084c-14.752-17.576-36.502-27.678-59.387-27.585-30.368-0.007-57.973 17.712-70.725 45.399s-8.327 60.295 11.338 83.542l436.463 516.084c27.861 32.949 77.036 36.97 109.834 8.981zM910.663 509.265c32.805-27.352 37.46-76.405 10.399-109.562l-217.741-266.262c-14.635-17.79-36.351-28.064-59.241-28.029-17.858-0.095-35.169 6.227-48.842 17.837-15.76 13.061-25.718 31.933-27.67 52.437s4.264 40.949 17.271 56.807l217.426 266.262c27.062 33.157 75.593 37.863 108.398 10.51zM329.882 766.953c28.311-4.622 51.926-24.037 61.803-50.812s4.486-56.762-14.109-78.48l-151.62-182.149c-15.109-18.188-37.571-28.757-61.3-28.846-30.754 0.216-58.652 17.961-71.734 45.628s-9.024 60.341 10.434 84.015l151.62 182.149c17.974 22.228 46.595 33.116 74.906 28.494z" />
<glyph unicode="&#xe93e;" glyph-name="brand-manager-text" horiz-adv-x="2048" d="M1362.192 229.905c34.351 0 68.695-13.927 95.008-41.397l-29.966-32.504c-17.175 17.411-42.756 27.086-65.042 27.086-54.816 0-88.072-44.106-88.072-99.829 0-44.497 24.487-90.537 88.072-90.537 20.090 0 37.634 4.642 57.736 21.662v47.981h-65.417v45.656h109.631v-114.14c-25.212-30.57-57.004-48.756-101.951-48.756-96.115 0-135.219 66.941-135.219 138.134 0 76.225 44.952 146.643 135.219 146.643zM55.549 221.785l80.035-116.464 80.028 116.464h55.178v-270.857h-48.236v196.564l-83.318-117.63h-9.507l-81.486 118.021v-196.955h-48.242v270.857h55.548zM868.554 222.56v-271.24h-29.966v-0.391l-134.481 183.022v-182.631h-48.236v270.849h39.098l125.349-167.929v168.32h48.236zM1723.566 222.169v-49.523h-143.62v-62.298h138.503v-47.596h-138.503v-61.126h143.62v-50.305h-191.486v270.849h191.486zM486.354 222.172l114.748-270.857h-52.62l-21.567 51.074h-133.743l-21.929-51.074h-52.257l114.748 270.857h52.62zM1083.032 222.172l114.748-270.857h-52.62l-21.567 51.074h-133.743l-21.929-51.074h-52.257l114.748 270.857h52.62zM1790.4 222.559c40.562 0 81.129-0.384 121.691-0.384 60.301-0.391 92.093-42.954 92.093-89.769 0-37.152-16.080-74.683-64.685-85.133l77.477-92.478v-3.477h-57.374l-74.549 90.544h-46.409v-90.544h-48.242v271.24zM460.047 165.291l-47.51-115.306h95.015l-47.504 115.306zM1056.725 165.291l-47.51-115.306h95.015l-47.504 115.306zM1912.090 174.578h-73.448v-86.676h73.448c30.698 0 43.858 21.675 43.858 43.338 0 21.669-13.522 43.338-43.858 43.338zM1801.686 786.898l67.231-224.207c4.397-14.636 7.537-28.603 10.058-43.239h8.794c4.397 14.636 8.801 30.603 12.565 43.239l65.98 224.207h81.686l-114.36-335.977c-20.109-60.543-64.723-130.399-155.196-125.081l-6.286 51.232c30.378 8.953 51.814 21.398 67.331 38.397 4.534 4.974 2.465 16.563-1.389 28.862l-3.052 9.149c-18.813 55.644-114.416 333.417-114.416 333.417h81.054zM587.45 778.478c99.905 0 140.117-39.252 140.117-113.113 0-58.537-25.132-93.134-82.311-93.134h-125.674c6.28-59.212 29.541-71.186 82.317-71.186 29.528 0 73.518 3.325 110.588 7.98l6.917-51.894c-32.68-16.636-87.978-21.953-126.925-21.953-111.846 0-153.951 47.901-153.951 171.651 0 129.067 44.614 171.651 148.924 171.651zM899.119 862.973v-93.816h90.486v-58.537h-90.486v-165.67c0-28.609 9.426-37.921 37.071-37.921h42.094l8.175-59.874c-21.36-7.325-60.326-11.318-79.178-11.318-54.034 0-83.574 34.596-83.574 95.14v179.644h-55.91v55.219l55.297 3.318v93.816h76.025zM1574.627 778.472c76.025 0 115.617-26.603 115.617-113.763v-221.551h-60.326l-8.162 49.908c-21.991-25.954-62.208-57.225-117.506-57.225-56.548 0-97.391 33.265-97.391 94.477v33.258c0 51.901 33.3 81.835 91.112 81.835h115.611v19.96c-0.619 37.258-12.565 46.57-56.548 46.57-28.271 0-80.429-2.662-128.815-6.656l-7.53 57.219c43.983 8.656 113.097 15.967 153.939 15.967zM115.96 902.219c16.963 0 25.132-7.98 32.68-25.278l118.119-273.439c8.169-19.967 20.741-47.908 30.167-72.524h7.537c-1.882 25.285-3.146 49.901-3.146 74.517v296.724h76.657v-428.461c0-19.954-10.045-30.596-28.896-30.596h-62.202c-16.975 0-25.769 7.98-32.68 25.278l-121.896 281.419c-8.175 18.636-21.36 47.246-25.763 68.53h-7.543c3.146-23.285 3.772-46.57 3.772-69.186v-306.042h-77.288v428.454c0 19.96 10.689 30.603 29.534 30.603h60.951zM1219.17 908.207c112.471 0 148.904-31.928 148.904-147.697 0-116.425-36.434-147.697-138.859-147.697-31.417 0-62.202 1.993-88.591 5.324v-174.974h-78.546v459.063c49.637 5.318 82.949 5.98 157.092 5.98zM1613.581 590.193h-98.017c-25.138-1.332-32.674-14.636-32.674-36.596v-12.636c0-27.947 12.571-39.914 40.217-39.914 23.868 0 59.063 11.305 90.474 38.584v50.563zM590.596 714.603c-52.789 0-70.383-17.292-72.266-85.822h105.566c24.506 0 27.645 20.623 27.645 37.927 0 34.583-13.829 47.894-60.945 47.894zM1217.281 839.682h-76.657v-159.008h76.657c54.666 0.669 71.634 16.636 71.634 79.835 0 63.212-16.969 79.173-71.634 79.173z" />
<glyph unicode="&#xe93f;" glyph-name="brand-NP" horiz-adv-x="2048" d="M1638.157 576.072c40.837-131.35 61.255-197.025 61.255-197.025 4.002-12.854 6.651-26.074 9.154-38.004h8.021c4.002 12.865 8.009 26.9 11.442 38.004l60.111 197.025h74.422l-104.187-295.24c-18.323-53.201-58.961-114.587-141.392-109.913l-5.726 45.015c27.678 7.872 47.206 18.811 61.345 33.752 4.13 4.366 2.244 14.553-1.267 25.356-4.113 12.637-107.016 301.032-107.016 301.032h73.841zM522.114 568.262c92.836 0 130.207-33.729 130.207-97.185 0-50.307-23.36-80.039-76.491-80.039h-116.788c5.841-50.881 27.447-61.165 76.496-61.165 27.442 0 68.32 2.854 102.771 6.856l6.422-44.593c-30.362-14.286-81.751-18.863-117.95-18.863-103.938 0-143.063 41.16-143.063 147.498 0 110.909 41.459 147.492 138.395 147.492zM819.431 645.216v-81.693h88.702v-50.975h-88.702v-144.264c0-24.911 9.237-33.023 36.342-33.023h41.267l8.012-52.138c-20.943-6.377-59.135-9.851-77.615-9.851-52.973 0-81.933 30.125-81.933 82.845v156.432h-54.811v48.082l54.204 2.892v81.693h74.534zM1438.076 568.262c72.056 0 109.584-22.904 109.584-97.943v-190.742h-57.179l-7.735 42.959c-20.852-22.345-58.967-49.265-111.373-49.265-53.602 0-92.316 28.64-92.316 81.338v28.634c0 44.685 31.566 70.465 86.357 70.465h109.579v17.179c-0.593 32.080-11.909 40.094-53.591 40.094-26.804 0-76.23-2.29-122.098-5.724l-7.143 49.259c41.692 7.445 107.198 13.745 145.911 13.745zM81.429 670.294c15.266 0 22.62-6.893 29.408-21.829l106.299-236.054c7.354-17.231 18.662-41.356 27.147-62.607h6.776c-1.692 21.834-2.828 43.080-2.828 64.332v256.158h68.987v-369.88c0-17.225-9.042-26.415-26.005-26.415h-55.981c-15.271 0-23.183 6.893-29.408 21.829l-109.69 242.936c-7.354 16.089-19.224 40.79-23.189 59.163h-6.781c2.834-20.104 3.391-40.208 3.391-59.735v-264.193h-69.554v369.87c0 17.231 9.62 26.426 26.585 26.426h54.845zM1121.144 682.667c105.9 0 140.204-28.062 140.204-129.784 0-102.314-34.304-129.789-130.744-129.789-29.579 0-58.565 1.75-83.415 4.674v-153.753h-73.949v403.391c46.735 4.68 78.097 5.261 147.905 5.261zM1474.996 406.165h-92.902c-23.825-1.145-30.968-12.605-30.968-31.505v-10.885c0-24.060 11.909-34.364 38.115-34.364 22.628 0 55.989 9.735 85.754 33.219v43.534zM525.035 513.379c-49.054 0-65.405-14.861-67.153-73.74h98.097c22.773 0 25.694 17.72 25.694 32.586 0 29.722-12.85 41.154-56.638 41.154zM1119.368 622.455h-72.178v-139.731h72.178c51.471 0.587 67.443 14.615 67.443 70.159 0 55.538-15.973 69.572-67.443 69.572zM1976.903 670.867c19.622 0 36.365-6.935 50.255-20.865 13.882-13.909 20.841-30.7 20.841-50.379s-6.96-36.499-20.841-50.446c-13.891-13.929-30.633-20.903-50.255-20.903-19.612 0-36.365 6.974-50.265 20.903-13.882 13.948-20.841 30.767-20.841 50.446s6.96 36.469 20.841 50.379c13.901 13.929 30.652 20.865 50.265 20.865zM1976.989 661.803c-16.992 0-31.497-6.068-43.526-18.186-12.028-12.128-18.048-26.788-18.048-43.992 0-17.213 6.019-31.894 18.048-44.050 12.028-12.147 26.534-18.225 43.526-18.225 16.982 0 31.488 6.078 43.516 18.225 12.028 12.156 18.048 26.837 18.048 44.050 0 17.204-6.019 31.864-18.048 43.992-12.028 12.118-26.534 18.186-43.516 18.186zM1990.794 617.184c0 2.033-0.326 3.796-0.988 5.279s-1.805 2.746-3.456 3.785c-1.363 0.886-2.899 1.483-4.598 1.782s-3.889 0.453-6.577 0.453h-9.456v-25.488h8.064c2.631 0 5.088 0.269 7.392 0.78 2.294 0.53 4.167 1.425 5.587 2.688 1.43 1.262 2.458 2.716 3.081 4.363 0.634 1.657 0.951 3.766 0.951 6.357v0zM2017.761 563.318h-18.662l-23.27 29.283h-10.108v-29.283h-13.555v75.472h22.934c5.137 0 9.206-0.192 12.201-0.578 2.985-0.376 6.019-1.455 9.082-3.218 3.294-1.879 5.673-4.113 7.143-6.762 1.489-2.639 2.227-6.021 2.227-10.143 0-5.5-1.526-9.999-4.561-13.534-3.034-3.507-6.998-6.261-11.875-8.236l28.444-33.002z" />
<glyph unicode="&#xe940;" glyph-name="brand-suite" horiz-adv-x="2048" d="M1115.358 514.895l42.217-116.347c2.761-7.595 4.733-14.843 6.315-22.441h5.522c2.761 7.598 5.526 15.884 7.89 22.441l41.432 116.347h51.294l-71.811-174.35c-12.627-31.418-40.642-67.663-97.454-64.907l-3.947 26.589c19.076 4.646 32.536 11.104 42.28 19.925 2.847 2.581 1.547 8.595-0.872 14.977-2.836 7.461-73.764 177.765-73.764 177.765h50.897zM352.889 510.525c62.735 0 87.985-20.369 87.985-58.697 0-30.376-15.781-48.329-51.687-48.329h-78.916c3.943-30.727 18.55-36.94 51.691-36.94 18.542 0 46.164 1.725 69.443 4.141l4.344-26.929c-20.522-8.633-55.245-11.392-79.702-11.392-70.233 0-96.673 24.857-96.673 89.074 0 66.976 28.015 89.074 93.515 89.074zM548.599 554.372v-48.686h56.82v-30.373h-56.82v-85.97c0-14.846 5.919-19.678 23.279-19.678h26.432l5.133-31.074c-13.413-3.797-37.881-5.87-49.719-5.87-33.93 0-52.48 17.953-52.48 49.37v93.222h-35.108v28.654l34.723 1.718v48.686h47.74zM972.779 510.522c47.74 0 72.601-13.805 72.601-59.034v-114.968h-37.881l-5.125 25.898c-13.809-13.472-39.064-29.699-73.787-29.699-35.509 0-61.156 17.262-61.156 49.030v17.259c0 26.933 20.91 42.463 57.213 42.463h72.597v10.358c-0.389 19.338-7.89 24.17-35.509 24.17-17.752 0-50.504-1.382-80.888-3.454l-4.729 29.692c27.618 4.488 71.018 8.286 96.665 8.286zM56.82 574.737c10.652 0 15.781-4.141 20.522-13.118l74.172-141.894c5.129-10.361 13.024-24.864 18.943-37.634h4.733c-1.182 13.121-1.976 25.895-1.976 38.669v153.977h48.136v-222.338c0-10.354-6.308-15.877-18.145-15.877h-39.060c-10.66 0-16.182 4.141-20.522 13.118l-76.544 146.035c-5.133 9.667-13.413 24.517-16.178 35.562h-4.737c1.976-12.087 2.368-24.166 2.368-35.906v-158.809h-48.533v222.335c0 10.358 6.712 15.881 18.546 15.881h38.274zM749.572 577.844c70.625 0 93.503-16.568 93.503-76.643 0-60.416-22.878-76.643-87.196-76.643-19.728 0-39.060 1.035-55.63 2.763v-90.799h-49.322v238.219c31.169 2.759 52.087 3.103 98.645 3.103zM997.239 412.819h-61.549c-15.785-0.694-20.518-7.595-20.518-18.991v-6.56c0-14.499 7.894-20.709 25.254-20.709 14.988 0 37.088 5.866 56.812 20.022v26.238zM354.864 477.378c-33.149 0-44.197-8.973-45.379-44.535h66.289c15.388 0 17.36 10.701 17.36 19.682 0 17.946-8.684 24.854-38.27 24.854zM748.386 542.285h-48.136v-82.513h48.136c34.327 0.347 44.982 8.633 44.982 41.428 0 32.802-10.656 41.085-44.982 41.085zM1402.86 474.746c24.355 0 49.609-6.458 61.455-28.97l-23.467-11.253c-5.361 8.333-20.113 16.256-37.096 16.256-21.9 0-32.402-8.546-32.402-19.384 0-12.711 16.083-16.256 34.865-18.341 32.622-3.751 63.018-11.67 63.018-46.48 0-32.513-30.839-46.476-65.704-46.476-31.959 0-56.541 9.172-68.159 35.85l24.579 11.879c6.928-16.051 25.030-23.136 44.024-23.136 18.55 0 35.984 6.044 35.984 21.883 0 13.758-15.423 19.384-36.204 21.472-31.959 3.538-61.458 11.458-61.458 44.183 0 30.011 31.731 42.311 60.567 42.516zM1539.169 469.535v-83.575c0-26.263 16.091-40.227 40.446-40.227 24.367 0 38.219 15.212 38.219 40.227v83.575h29.272v-83.575c0-43.146-28.384-65.238-67.711-65.238-37.543 0-69.502 21.26-69.502 65.238v83.575h29.276zM1723.303 469.748v-145.897h-29.272v145.897h29.272zM1895.602 469.746v-25.011h-49.617v-120.886h-29.496v120.886h-49.617v25.011h128.73zM2047.999 469.746v-26.678h-87.824v-33.557h84.694v-25.637h-84.694v-32.934h87.824v-27.091h-117.104v145.897h117.104z" />
<glyph unicode="&#xe941;" glyph-name="brand-checkout-full" horiz-adv-x="2048" d="M577.006 208.271c27.487 0 52.796 8.853 72.39 27.898l-24.493 24.41c-12.519-12.341-31.297-19.047-47.897-19.047-47.081 0-65.315 32.46-65.586 63.576-0.271 31.385 19.594 65.186 65.586 65.186 16.6 0 33.473-5.634 45.992-17.704l23.948 22.801c-19.594 19.047-44.087 28.704-69.941 28.704-68.851 0-101.238-49.895-100.967-98.986 0.274-48.823 30.21-96.839 100.967-96.839zM719.774 212.293v75.917h93.618v-75.917h35.652v187.778h-35.652v-79.136h-93.618v79.136h-35.923v-187.778h35.923zM1038.89 212.562v34.873h-106.953v42.385h103.143v32.995h-103.143v43.188h106.953v34.338h-142.604v-187.778h142.604zM1176.214 208.271c27.487 0 52.796 8.853 72.39 27.898l-24.493 24.41c-12.519-12.341-31.297-19.047-47.897-19.047-47.081 0-65.315 32.46-65.586 63.576-0.271 31.385 19.594 65.186 65.586 65.186 16.6 0 33.473-5.634 45.992-17.704l23.948 22.801c-19.594 19.047-44.087 28.704-69.941 28.704-68.851 0-101.238-49.895-100.967-98.986 0.274-48.823 30.21-96.839 100.967-96.839zM1318.98 212.562v83.16l79.739-83.16h44.358v2.147l-91.713 94.695 84.635 89.867v1.072h-44.632l-72.39-79.404v79.404h-35.923v-187.778h35.923zM1548.017 208.271c66.946 0 97.154 48.554 97.699 97.108 0.545 49.091-32.113 98.717-97.699 98.717-65.86 0-97.972-49.629-97.972-98.986s31.024-96.839 97.972-96.839zM1548.017 240.728c-44.903 0-61.776 32.995-62.592 63.845-0.816 31.654 17.689 67.332 62.592 67.332s62.865-35.41 62.321-67.064c-0.545-30.85-17.418-64.113-62.321-64.113zM1770.795 208.539c47.897 0 82.459 28.435 82.459 83.964v107.57h-35.652v-107.57c0-32.191-16.873-51.773-46.537-51.773s-49.257 17.972-49.257 51.773v107.57h-35.652v-107.57c0-56.601 38.917-83.964 84.638-83.964zM1987.584 212.562v155.59h60.416v32.191h-156.754v-32.191h60.416v-155.59h35.923zM54.823 308.365c11.947-17.267 34.721-29.737 49.944-34.929l-52.374-73.895c-3.986-5.717-11.84-7.026-17.518-3.097l-29.478 20.363c-5.678 3.93-7.129 11.684-3.141 17.267l52.567 74.288zM103.27 623.308l285.243-196.853c9.906-6.799 12.323-20.256 5.317-30.010l-27.666-39.061c-23.438-32.999-55.453-56.567-91.093-69.796-0.906-0.476-1.761-0.723-2.66-1.070-4.833-1.536-9.544-3.085-14.377-4.406l-4.953-1.299c-9.183-2.274-18.485-3.81-27.907-4.762-1.812-0.12-3.746-0.369-5.678-0.488l-2.779-0.154-2.779-0.073c-1.812-0.132-3.505-0.249-5.317-0.249h-6.404c-3.141 0.12-6.281 0.249-9.425 0.369-1.57 0.107-3.263 0.227-4.953 0.476-1.451 0-2.899 0.227-4.469 0.476l-9.425 1.18c-1.812 0.369-3.624 0.596-5.317 0.952-2.415 0.488-4.711 0.965-7.007 1.441-1.451 0.357-2.899 0.703-4.227 1.060-1.57 0.369-3.141 0.845-4.591 1.192-3.866 1.084-7.612 2.262-11.356 3.585l-3.986 1.299c-4.711 1.797-9.425 3.702-14.014 5.834-1.329 0.596-2.537 1.192-3.746 1.797l-5.075 2.501c-5.559 2.845-10.995 6.074-16.309 9.527-1.692 1.060-3.382 2.132-5.075 3.334-8.457 5.822-16.309 12.255-23.558 19.291-68.502 64.546-80.703 170.641-24.525 249.728l27.666 38.929c6.887 9.776 20.539 12.16 30.445 5.251zM341.197 571.411l29.116-20.102c9.278-6.406 10.475-14.504 6.027-20.173-15.813-20.102-46.925-63.903-46.925-63.903-17.049 23.726-29.722 41.318-38.021 52.767 7.095 10.663 17.74 26.657 31.93 47.98 3.927 5.908 11.984 7.478 17.867 3.429zM218.934 656.889l29.116-20.102c9.278-6.406 10.475-14.504 6.027-20.173-15.813-20.102-46.925-63.903-46.925-63.903-17.049 23.726-29.722 41.318-38.021 52.767 7.095 10.663 17.74 26.657 31.93 47.98 3.927 5.908 11.984 7.478 17.867 3.429zM1140.924 616.675l25.284-78.493c1.653-5.121 2.838-10.013 3.778-15.139h3.309c1.649 5.126 3.304 10.719 4.721 15.139l24.815 78.493h30.716l-43.005-117.62c-7.554-21.199-24.337-45.648-58.362-43.787l-2.359 17.931c11.42 3.138 19.479 7.498 25.319 13.447 1.702 1.739 0.923 5.798-0.528 10.104-1.697 5.036-44.17 119.926-44.17 119.926h30.479zM684.318 613.722c37.564 0 52.689-13.738 52.689-39.593 0-20.493-9.451-32.606-30.953-32.606h-47.262c2.364-20.73 11.115-24.923 30.958-24.923 11.105 0 27.646 1.163 41.594 2.796l2.601-18.168c-12.294-5.82-33.087-7.688-47.736-7.688-42.053 0-57.893 16.773-57.893 60.096 0 45.181 16.778 60.086 56.005 60.086zM1055.541 613.727c28.589 0 43.479-9.317 43.479-39.828v-77.56h-22.688l-3.070 17.467c-8.269-9.090-23.394-20.036-44.19-20.036-21.262 0-36.626 11.647-36.626 33.078v11.642c0 18.173 12.526 28.647 34.267 28.647h43.474v6.987c-0.237 13.046-4.731 16.304-21.257 16.304-10.641 0-30.252-0.928-48.446-2.33l-2.838 20.031c16.541 3.026 42.531 5.593 57.893 5.593zM801.515 643.305v-32.841h34.025v-20.498h-34.025v-57.996c0-10.018 3.541-13.276 13.943-13.276h15.831l3.072-20.959c-8.032-2.567-22.679-3.964-29.773-3.964-20.317 0-31.427 12.109-31.427 33.307v62.887h-21.030v19.33l20.796 1.167v32.841h28.589zM507.012 657.045c6.384 0 9.451-2.791 12.289-8.851l44.422-95.723c3.070-6.992 7.8-16.773 11.342-25.389h2.833c-0.706 8.846-1.18 17.467-1.18 26.085v103.878h28.826v-149.994c0-6.987-3.778-10.714-10.868-10.714h-23.394c-6.379 0-9.683 2.791-12.284 8.851l-45.836 98.524c-3.077 6.516-8.037 16.534-9.688 23.99h-2.838c1.184-8.155 1.416-16.304 1.416-24.222v-107.141h-29.067v149.994c0 6.987 4.020 10.714 11.11 10.714h22.92zM921.868 659.143c42.295 0 56-11.181 56-51.707 0-40.756-13.706-51.702-52.215-51.702-11.82 0-23.394 0.696-33.319 1.863v-61.258h-29.536v160.711c18.668 1.863 31.195 2.095 59.073 2.095zM1070.19 547.809h-36.863c-9.447-0.462-12.284-5.126-12.284-12.809v-4.425c0-9.784 4.731-13.977 15.12-13.977 8.98 0 22.219 3.959 34.025 13.51v17.701zM685.497 591.361c-19.848 0-26.459-6.049-27.172-30.044h39.694c9.215 0 10.394 7.222 10.394 13.276 0 12.109-5.195 16.768-22.915 16.768zM921.16 635.153h-28.826v-55.666h28.826c20.564 0.234 26.938 5.82 26.938 27.946 0 22.131-6.374 27.719-26.938 27.719z" />
<glyph unicode="&#xe942;" glyph-name="brand-checkout-symbol" d="M259.181 245.127c19.29-27.84 56.057-47.942 80.633-56.314l-84.553-119.136c-6.437-9.216-19.115-11.328-28.282-4.992l-47.592 32.832c-9.167 6.336-11.508 18.835-5.071 27.84l84.865 119.77zM337.397 752.894l460.509-317.378c15.994-10.963 19.895-32.659 8.582-48.384l-44.666-62.976c-35.136-49.403-82.214-85.694-134.829-107.706l-12.237-4.826c-1.463-0.766-2.841-1.167-4.293-1.726-7.802-2.477-15.409-4.973-23.211-7.104-2.731-0.768-5.266-1.536-7.997-2.093-14.824-3.667-29.842-6.144-45.056-7.68-2.926-0.192-6.046-0.595-9.167-0.787-2.926-0.173-6.046-0.365-8.972-0.365-2.926-0.211-5.656-0.403-8.582-0.403h-10.338l-15.214 0.595c-2.536 0.173-5.266 0.365-7.997 0.768-2.341 0-4.681 0.365-7.217 0.768-5.071 0.557-10.142 1.133-15.214 1.901-2.926 0.595-5.851 0.96-8.582 1.536-3.901 0.787-7.607 1.555-11.313 2.323-2.341 0.576-4.681 1.133-6.827 1.709-2.536 0.595-5.071 1.363-7.412 1.92-6.242 1.747-12.288 3.648-18.334 5.779-2.146 0.557-4.291 1.325-6.437 2.093-7.607 2.899-15.214 5.971-22.626 9.408-2.146 0.96-4.096 1.92-6.046 2.899-2.731 1.133-5.461 2.669-8.192 4.032-8.972 4.589-17.749 9.792-26.331 15.36-2.731 1.709-5.461 3.437-8.192 5.376-13.653 9.389-26.331 19.757-38.034 31.104-110.592 104.064-130.292 275.117-39.595 402.624l44.666 62.765c11.118 15.763 33.158 19.603 49.152 8.467zM721.516 669.224l47.006-32.41c14.98-10.33 16.911-23.386 9.733-32.525-25.532-32.41-75.756-103.027-75.756-103.027-27.526 38.255-47.986 66.613-61.381 85.075 11.456 17.19 28.639 42.976 51.551 77.357 6.339 9.523 19.349 12.058 28.848 5.53zM524.132 807.037l47.006-32.41c14.98-10.33 16.911-23.386 9.733-32.525-7.771-9.864-17.828-23.267-28.061-37.141l-8.765-11.936c-20.322-27.786-38.93-53.95-38.93-53.95-27.526 38.255-47.986 66.613-61.381 85.075 6.364 9.55 14.496 21.753 24.396 36.609l12.729 19.101c4.526 6.791 9.334 14.007 14.426 21.647 6.339 9.523 19.349 12.058 28.848 5.53z" />
</font>
</defs>
</svg>
